<svg width="9" height="10" viewBox="0 0 9 10" fill="none" xmlns="http://www.w3.org/2000/svg">
<path d="M3.97162 3.30457C3.60331 3.61699 3.25485 3.95771 2.92876 4.32424C1.39203 6.04426 0.613934 7.96083 1.18994 8.60614C1.76594 9.25084 3.47883 8.37934 5.01502 6.65993C5.34252 6.29476 5.64692 5.90453 5.92604 5.49209" stroke="#92D1FF" stroke-width="0.5" stroke-linecap="round" stroke-linejoin="round"/>
<path d="M5.92588 5.49219C6.83203 6.83845 7.20108 8.10488 6.75368 8.60564C6.17714 9.25095 4.46479 8.37945 2.92806 6.66004C1.3924 4.93942 0.614312 3.02345 1.19032 2.37814C1.63772 1.87798 2.7692 2.29105 3.972 3.30467" stroke="#92D1FF" stroke-width="0.5" stroke-linecap="round" stroke-linejoin="round"/>
<path d="M3.70154 5.49214C3.70154 5.57234 3.73 5.64926 3.78067 5.70597C3.83134 5.76268 3.90006 5.79454 3.97171 5.79454C4.04336 5.79454 4.11208 5.76268 4.16275 5.70597C4.21342 5.64926 4.24188 5.57234 4.24188 5.49214C4.24188 5.41194 4.21342 5.33503 4.16275 5.27832C4.11208 5.22161 4.04336 5.18975 3.97171 5.18975C3.90006 5.18975 3.83134 5.22161 3.78067 5.27832C3.73 5.33503 3.70154 5.41194 3.70154 5.49214ZM5.0578 2.8589C4.88759 2.82563 4.88759 2.55287 5.0578 2.52021C5.35841 2.46168 5.63665 2.30428 5.85702 2.06806C6.0774 1.83185 6.22993 1.52754 6.29518 1.19391L6.30491 1.1413C6.34165 0.953812 6.58048 0.952602 6.61831 1.13948L6.63127 1.20057C6.69897 1.53271 6.85284 1.83506 7.07357 2.06964C7.2943 2.30421 7.57204 2.46054 7.8719 2.519C8.04265 2.55227 8.04265 2.82684 7.8719 2.8595C7.57204 2.91796 7.2943 3.0743 7.07357 3.30887C6.85284 3.54344 6.69897 3.84579 6.63127 4.17794L6.61831 4.23902C6.58048 4.42651 6.34165 4.4253 6.30491 4.23781L6.2941 4.1852C6.22885 3.85157 6.07632 3.54726 5.85594 3.31104C5.63556 3.07483 5.35733 2.91743 5.05672 2.8589H5.0578Z" stroke="#92D1FF" stroke-width="0.5" stroke-linecap="round" stroke-linejoin="round"/>
</svg>
