<svg width="49" height="8" viewBox="0 0 49 8" fill="none" xmlns="http://www.w3.org/2000/svg">
<rect x="0.25" y="0.25" width="48.5" height="7.5" rx="3.75" fill="white" stroke="#005326" stroke-width="0.5"/>
<path d="M6.186 3.84C6.186 3.58 6.232 3.324 6.324 3.072C6.42 2.816 6.558 2.588 6.738 2.388C6.918 2.188 7.138 2.026 7.398 1.902C7.658 1.778 7.954 1.716 8.286 1.716C8.678 1.716 9.016 1.802 9.3 1.974C9.588 2.146 9.802 2.37 9.942 2.646L9.306 3.084C9.25 2.964 9.182 2.864 9.102 2.784C9.022 2.7 8.936 2.634 8.844 2.586C8.752 2.538 8.656 2.504 8.556 2.484C8.456 2.46 8.358 2.448 8.262 2.448C8.054 2.448 7.872 2.49 7.716 2.574C7.564 2.658 7.436 2.768 7.332 2.904C7.232 3.036 7.156 3.188 7.104 3.36C7.052 3.528 7.026 3.696 7.026 3.864C7.026 4.052 7.056 4.234 7.116 4.41C7.176 4.582 7.26 4.734 7.368 4.866C7.48 4.998 7.612 5.104 7.764 5.184C7.92 5.264 8.09 5.304 8.274 5.304C8.37 5.304 8.47 5.292 8.574 5.268C8.678 5.244 8.776 5.206 8.868 5.154C8.964 5.102 9.052 5.036 9.132 4.956C9.212 4.872 9.276 4.772 9.324 4.656L10.002 5.046C9.934 5.206 9.836 5.348 9.708 5.472C9.584 5.592 9.442 5.694 9.282 5.778C9.126 5.862 8.958 5.926 8.778 5.97C8.598 6.014 8.422 6.036 8.25 6.036C7.946 6.036 7.668 5.972 7.416 5.844C7.164 5.716 6.946 5.55 6.762 5.346C6.582 5.138 6.44 4.904 6.336 4.644C6.236 4.38 6.186 4.112 6.186 3.84ZM11.3373 6.06C11.1853 6.06 11.0433 6.036 10.9113 5.988C10.7793 5.936 10.6653 5.866 10.5693 5.778C10.4733 5.686 10.3973 5.58 10.3413 5.46C10.2893 5.34 10.2633 5.208 10.2633 5.064C10.2633 4.916 10.2953 4.78 10.3593 4.656C10.4273 4.528 10.5193 4.42 10.6353 4.332C10.7553 4.244 10.8973 4.176 11.0613 4.128C11.2253 4.076 11.4053 4.05 11.6013 4.05C11.7413 4.05 11.8773 4.062 12.0093 4.086C12.1453 4.11 12.2653 4.144 12.3693 4.188V4.008C12.3693 3.8 12.3093 3.64 12.1893 3.528C12.0733 3.416 11.8993 3.36 11.6673 3.36C11.4993 3.36 11.3353 3.39 11.1753 3.45C11.0153 3.51 10.8513 3.598 10.6833 3.714L10.4373 3.204C10.8413 2.936 11.2773 2.802 11.7453 2.802C12.1973 2.802 12.5473 2.914 12.7953 3.138C13.0473 3.358 13.1733 3.678 13.1733 4.098V5.076C13.1733 5.16 13.1873 5.22 13.2153 5.256C13.2473 5.292 13.2973 5.312 13.3653 5.316V6C13.2293 6.028 13.1113 6.042 13.0113 6.042C12.8593 6.042 12.7413 6.008 12.6573 5.94C12.5773 5.872 12.5273 5.782 12.5073 5.67L12.4893 5.496C12.3493 5.68 12.1793 5.82 11.9793 5.916C11.7793 6.012 11.5653 6.06 11.3373 6.06ZM11.5653 5.472C11.7013 5.472 11.8293 5.448 11.9493 5.4C12.0733 5.352 12.1693 5.288 12.2373 5.208C12.3253 5.14 12.3693 5.064 12.3693 4.98V4.62C12.2733 4.584 12.1693 4.556 12.0573 4.536C11.9453 4.512 11.8373 4.5 11.7333 4.5C11.5253 4.5 11.3553 4.548 11.2233 4.644C11.0913 4.736 11.0253 4.854 11.0253 4.998C11.0253 5.134 11.0773 5.248 11.1813 5.34C11.2853 5.428 11.4133 5.472 11.5653 5.472ZM15.7063 4.53L16.6363 2.856H17.4583V6H16.6903V4.11L15.8923 5.526H15.5143L14.7163 4.11V6H13.9483V2.856H14.7763L15.7063 4.53ZM19.6539 6.06C19.3979 6.06 19.1679 6.016 18.9639 5.928C18.7599 5.84 18.5859 5.722 18.4419 5.574C18.3019 5.422 18.1939 5.248 18.1179 5.052C18.0419 4.856 18.0039 4.65 18.0039 4.434C18.0039 4.214 18.0419 4.006 18.1179 3.81C18.1939 3.614 18.3019 3.442 18.4419 3.294C18.5859 3.142 18.7599 3.022 18.9639 2.934C19.1679 2.846 19.3979 2.802 19.6539 2.802C19.9099 2.802 20.1379 2.846 20.3379 2.934C20.5419 3.022 20.7139 3.142 20.8539 3.294C20.9979 3.442 21.1079 3.614 21.1839 3.81C21.2599 4.006 21.2979 4.214 21.2979 4.434C21.2979 4.65 21.2599 4.856 21.1839 5.052C21.1079 5.248 20.9999 5.422 20.8599 5.574C20.7199 5.722 20.5479 5.84 20.3439 5.928C20.1399 6.016 19.9099 6.06 19.6539 6.06ZM18.8319 4.434C18.8319 4.574 18.8519 4.702 18.8919 4.818C18.9359 4.93 18.9939 5.028 19.0659 5.112C19.1419 5.196 19.2299 5.262 19.3299 5.31C19.4299 5.354 19.5379 5.376 19.6539 5.376C19.7699 5.376 19.8779 5.354 19.9779 5.31C20.0779 5.262 20.1639 5.196 20.2359 5.112C20.3119 5.028 20.3699 4.928 20.4099 4.812C20.4539 4.696 20.4759 4.568 20.4759 4.428C20.4759 4.292 20.4539 4.166 20.4099 4.05C20.3699 3.934 20.3119 3.834 20.2359 3.75C20.1639 3.666 20.0779 3.602 19.9779 3.558C19.8779 3.51 19.7699 3.486 19.6539 3.486C19.5379 3.486 19.4299 3.51 19.3299 3.558C19.2299 3.606 19.1419 3.672 19.0659 3.756C18.9939 3.84 18.9359 3.94 18.8919 4.056C18.8519 4.172 18.8319 4.298 18.8319 4.434ZM23.2926 6.06C23.0366 6.06 22.8066 6.016 22.6026 5.928C22.3986 5.84 22.2246 5.722 22.0806 5.574C21.9406 5.422 21.8326 5.248 21.7566 5.052C21.6806 4.856 21.6426 4.65 21.6426 4.434C21.6426 4.214 21.6806 4.006 21.7566 3.81C21.8326 3.614 21.9406 3.442 22.0806 3.294C22.2246 3.142 22.3986 3.022 22.6026 2.934C22.8066 2.846 23.0366 2.802 23.2926 2.802C23.5486 2.802 23.7766 2.846 23.9766 2.934C24.1806 3.022 24.3526 3.142 24.4926 3.294C24.6366 3.442 24.7466 3.614 24.8226 3.81C24.8986 4.006 24.9366 4.214 24.9366 4.434C24.9366 4.65 24.8986 4.856 24.8226 5.052C24.7466 5.248 24.6386 5.422 24.4986 5.574C24.3586 5.722 24.1866 5.84 23.9826 5.928C23.7786 6.016 23.5486 6.06 23.2926 6.06ZM22.4706 4.434C22.4706 4.574 22.4906 4.702 22.5306 4.818C22.5746 4.93 22.6326 5.028 22.7046 5.112C22.7806 5.196 22.8686 5.262 22.9686 5.31C23.0686 5.354 23.1766 5.376 23.2926 5.376C23.4086 5.376 23.5166 5.354 23.6166 5.31C23.7166 5.262 23.8026 5.196 23.8746 5.112C23.9506 5.028 24.0086 4.928 24.0486 4.812C24.0926 4.696 24.1146 4.568 24.1146 4.428C24.1146 4.292 24.0926 4.166 24.0486 4.05C24.0086 3.934 23.9506 3.834 23.8746 3.75C23.8026 3.666 23.7166 3.602 23.6166 3.558C23.5166 3.51 23.4086 3.486 23.2926 3.486C23.1766 3.486 23.0686 3.51 22.9686 3.558C22.8686 3.606 22.7806 3.672 22.7046 3.756C22.6326 3.84 22.5746 3.94 22.5306 4.056C22.4906 4.172 22.4706 4.298 22.4706 4.434ZM25.4913 2.856H26.2893V5.304H27.3333V2.856H28.1313V5.304H28.6473V6.9H27.9393V6H25.4913V2.856ZM30.5525 6.06C30.3005 6.06 30.0725 6.018 29.8685 5.934C29.6645 5.846 29.4905 5.728 29.3465 5.58C29.2025 5.432 29.0905 5.26 29.0105 5.064C28.9345 4.868 28.8965 4.662 28.8965 4.446C28.8965 4.222 28.9345 4.012 29.0105 3.816C29.0865 3.616 29.1965 3.442 29.3405 3.294C29.4845 3.142 29.6585 3.022 29.8625 2.934C30.0705 2.846 30.3025 2.802 30.5585 2.802C30.8145 2.802 31.0425 2.846 31.2425 2.934C31.4465 3.022 31.6185 3.14 31.7585 3.288C31.9025 3.436 32.0105 3.608 32.0825 3.804C32.1585 4 32.1965 4.204 32.1965 4.416C32.1965 4.468 32.1945 4.518 32.1905 4.566C32.1905 4.614 32.1865 4.654 32.1785 4.686H29.7485C29.7605 4.81 29.7905 4.92 29.8385 5.016C29.8865 5.112 29.9485 5.194 30.0245 5.262C30.1005 5.33 30.1865 5.382 30.2825 5.418C30.3785 5.454 30.4785 5.472 30.5825 5.472C30.7425 5.472 30.8925 5.434 31.0325 5.358C31.1765 5.278 31.2745 5.174 31.3265 5.046L32.0165 5.238C31.9005 5.478 31.7145 5.676 31.4585 5.832C31.2065 5.984 30.9045 6.06 30.5525 6.06ZM31.3685 4.164C31.3485 3.928 31.2605 3.74 31.1045 3.6C30.9525 3.456 30.7665 3.384 30.5465 3.384C30.4385 3.384 30.3365 3.404 30.2405 3.444C30.1485 3.48 30.0665 3.532 29.9945 3.6C29.9225 3.668 29.8625 3.75 29.8145 3.846C29.7705 3.942 29.7445 4.048 29.7365 4.164H31.3685ZM33.4963 4.044H34.7443V2.856H35.5423V6H34.7443V4.728H33.4963V6H32.6983V2.856H33.4963V4.044ZM38.2161 2.856H39.0801L37.8561 4.38L39.1761 6H38.2641L37.2921 4.788H37.0821V6H36.2901V2.856H37.0821V4.104H37.2621L38.2161 2.856ZM40.3412 6.06C40.1892 6.06 40.0472 6.036 39.9152 5.988C39.7832 5.936 39.6692 5.866 39.5732 5.778C39.4772 5.686 39.4012 5.58 39.3452 5.46C39.2932 5.34 39.2672 5.208 39.2672 5.064C39.2672 4.916 39.2992 4.78 39.3632 4.656C39.4312 4.528 39.5232 4.42 39.6392 4.332C39.7592 4.244 39.9012 4.176 40.0652 4.128C40.2292 4.076 40.4092 4.05 40.6052 4.05C40.7452 4.05 40.8812 4.062 41.0132 4.086C41.1492 4.11 41.2692 4.144 41.3732 4.188V4.008C41.3732 3.8 41.3132 3.64 41.1932 3.528C41.0772 3.416 40.9032 3.36 40.6712 3.36C40.5032 3.36 40.3392 3.39 40.1792 3.45C40.0192 3.51 39.8552 3.598 39.6872 3.714L39.4412 3.204C39.8452 2.936 40.2812 2.802 40.7492 2.802C41.2012 2.802 41.5512 2.914 41.7992 3.138C42.0512 3.358 42.1772 3.678 42.1772 4.098V5.076C42.1772 5.16 42.1912 5.22 42.2192 5.256C42.2512 5.292 42.3012 5.312 42.3692 5.316V6C42.2332 6.028 42.1152 6.042 42.0152 6.042C41.8632 6.042 41.7452 6.008 41.6612 5.94C41.5812 5.872 41.5312 5.782 41.5112 5.67L41.4932 5.496C41.3532 5.68 41.1832 5.82 40.9832 5.916C40.7832 6.012 40.5692 6.06 40.3412 6.06ZM40.5692 5.472C40.7052 5.472 40.8332 5.448 40.9532 5.4C41.0772 5.352 41.1732 5.288 41.2412 5.208C41.3292 5.14 41.3732 5.064 41.3732 4.98V4.62C41.2772 4.584 41.1732 4.556 41.0612 4.536C40.9492 4.512 40.8412 4.5 40.7372 4.5C40.5292 4.5 40.3592 4.548 40.2272 4.644C40.0952 4.736 40.0292 4.854 40.0292 4.998C40.0292 5.134 40.0812 5.248 40.1852 5.34C40.2892 5.428 40.4172 5.472 40.5692 5.472Z" fill="#005326"/>
</svg>
