<svg width="69" height="8" viewBox="0 0 69 8" fill="none" xmlns="http://www.w3.org/2000/svg">
<rect x="0.25" y="0.25" width="68.5" height="7.5" rx="3.75" fill="white" stroke="#005326" stroke-width="0.5"/>
<path d="M5.462 1.74H8.972V6H8.15V2.466H6.284V6H5.462V1.74ZM10.6174 4.854L12.1054 2.856H12.6994V6H11.9014V4.056L10.4314 6H9.81941V2.856H10.6174V4.854ZM13.4581 2.856H14.2561V5.304H15.1321V2.856H15.9301V5.304H16.8061V2.856H17.6041V5.304H18.1261V6.9H17.4121V6H13.4581V2.856ZM20.0252 6.06C19.7732 6.06 19.5452 6.018 19.3412 5.934C19.1372 5.846 18.9632 5.728 18.8192 5.58C18.6752 5.432 18.5632 5.26 18.4832 5.064C18.4072 4.868 18.3692 4.662 18.3692 4.446C18.3692 4.222 18.4072 4.012 18.4832 3.816C18.5592 3.616 18.6692 3.442 18.8132 3.294C18.9572 3.142 19.1312 3.022 19.3352 2.934C19.5432 2.846 19.7752 2.802 20.0312 2.802C20.2872 2.802 20.5152 2.846 20.7152 2.934C20.9192 3.022 21.0912 3.14 21.2312 3.288C21.3752 3.436 21.4832 3.608 21.5552 3.804C21.6312 4 21.6692 4.204 21.6692 4.416C21.6692 4.468 21.6672 4.518 21.6632 4.566C21.6632 4.614 21.6592 4.654 21.6512 4.686H19.2212C19.2332 4.81 19.2632 4.92 19.3112 5.016C19.3592 5.112 19.4212 5.194 19.4972 5.262C19.5732 5.33 19.6592 5.382 19.7552 5.418C19.8512 5.454 19.9512 5.472 20.0552 5.472C20.2152 5.472 20.3652 5.434 20.5052 5.358C20.6492 5.278 20.7472 5.174 20.7992 5.046L21.4892 5.238C21.3732 5.478 21.1872 5.676 20.9312 5.832C20.6792 5.984 20.3772 6.06 20.0252 6.06ZM20.8412 4.164C20.8212 3.928 20.7332 3.74 20.5772 3.6C20.4252 3.456 20.2392 3.384 20.0192 3.384C19.9112 3.384 19.8092 3.404 19.7132 3.444C19.6212 3.48 19.5392 3.532 19.4672 3.6C19.3952 3.668 19.3352 3.75 19.2872 3.846C19.2432 3.942 19.2172 4.048 19.2092 4.164H20.8412ZM24.037 2.856C24.153 2.856 24.259 2.878 24.355 2.922C24.451 2.962 24.533 3.018 24.601 3.09C24.673 3.162 24.727 3.246 24.763 3.342C24.803 3.438 24.823 3.54 24.823 3.648C24.823 3.784 24.787 3.922 24.715 4.062C24.643 4.198 24.525 4.3 24.361 4.368C24.545 4.42 24.689 4.51 24.793 4.638C24.901 4.762 24.955 4.932 24.955 5.148C24.955 5.436 24.855 5.65 24.655 5.79C24.455 5.93 24.179 6 23.827 6H22.177V2.856H24.037ZM23.659 4.17C23.771 4.17 23.861 4.138 23.929 4.074C23.997 4.01 24.031 3.918 24.031 3.798C24.031 3.698 24.001 3.614 23.941 3.546C23.885 3.474 23.799 3.438 23.683 3.438H22.975V4.17H23.659ZM23.767 5.418C23.883 5.418 23.975 5.38 24.043 5.304C24.115 5.228 24.151 5.136 24.151 5.028C24.151 4.916 24.117 4.824 24.049 4.752C23.981 4.676 23.889 4.638 23.773 4.638H22.975V5.418H23.767ZM25.5108 2.856H26.3088V3.852H26.8368C27.0088 3.852 27.1668 3.876 27.3108 3.924C27.4588 3.968 27.5868 4.036 27.6948 4.128C27.8028 4.216 27.8868 4.328 27.9468 4.464C28.0108 4.596 28.0428 4.748 28.0428 4.92C28.0428 5.096 28.0128 5.252 27.9528 5.388C27.8928 5.52 27.8088 5.632 27.7008 5.724C27.5968 5.816 27.4728 5.886 27.3288 5.934C27.1888 5.978 27.0348 6 26.8668 6H25.5108V2.856ZM28.3848 2.856H29.1768V6H28.3848V2.856ZM26.7828 5.37C26.9188 5.37 27.0268 5.334 27.1068 5.262C27.1868 5.186 27.2268 5.076 27.2268 4.932C27.2268 4.788 27.1848 4.678 27.1008 4.602C27.0168 4.522 26.9108 4.482 26.7828 4.482H26.3088V5.37H26.7828ZM31.3806 6.06C31.1286 6.06 30.9006 6.018 30.6966 5.934C30.4926 5.846 30.3186 5.728 30.1746 5.58C30.0306 5.432 29.9186 5.26 29.8386 5.064C29.7626 4.868 29.7246 4.662 29.7246 4.446C29.7246 4.222 29.7626 4.012 29.8386 3.816C29.9146 3.616 30.0246 3.442 30.1686 3.294C30.3126 3.142 30.4866 3.022 30.6906 2.934C30.8986 2.846 31.1306 2.802 31.3866 2.802C31.6426 2.802 31.8706 2.846 32.0706 2.934C32.2746 3.022 32.4466 3.14 32.5866 3.288C32.7306 3.436 32.8386 3.608 32.9106 3.804C32.9866 4 33.0246 4.204 33.0246 4.416C33.0246 4.468 33.0226 4.518 33.0186 4.566C33.0186 4.614 33.0146 4.654 33.0066 4.686H30.5766C30.5886 4.81 30.6186 4.92 30.6666 5.016C30.7146 5.112 30.7766 5.194 30.8526 5.262C30.9286 5.33 31.0146 5.382 31.1106 5.418C31.2066 5.454 31.3066 5.472 31.4106 5.472C31.5706 5.472 31.7206 5.434 31.8606 5.358C32.0046 5.278 32.1026 5.174 32.1546 5.046L32.8446 5.238C32.7286 5.478 32.5426 5.676 32.2866 5.832C32.0346 5.984 31.7326 6.06 31.3806 6.06ZM32.1966 4.164C32.1766 3.928 32.0886 3.74 31.9326 3.6C31.7806 3.456 31.5946 3.384 31.3746 3.384C31.2666 3.384 31.1646 3.404 31.0686 3.444C30.9766 3.48 30.8946 3.532 30.8226 3.6C30.7506 3.668 30.6906 3.75 30.6426 3.846C30.5986 3.942 30.5726 4.048 30.5646 4.164H32.1966ZM37.7218 6H36.9238V3.552H35.7658V6H34.9678V2.856H37.7218V6ZM40.3558 6.06C40.1078 6.06 39.8918 6.006 39.7078 5.898C39.5238 5.786 39.3798 5.636 39.2758 5.448V7.278H38.4718V2.856H39.1738V3.396C39.2898 3.212 39.4398 3.068 39.6238 2.964C39.8078 2.856 40.0198 2.802 40.2598 2.802C40.4718 2.802 40.6678 2.846 40.8478 2.934C41.0278 3.018 41.1818 3.134 41.3098 3.282C41.4418 3.426 41.5438 3.598 41.6158 3.798C41.6918 3.994 41.7298 4.202 41.7298 4.422C41.7298 4.65 41.6958 4.864 41.6278 5.064C41.5598 5.264 41.4638 5.438 41.3398 5.586C41.2198 5.734 41.0758 5.85 40.9078 5.934C40.7398 6.018 40.5558 6.06 40.3558 6.06ZM40.0858 5.376C40.2058 5.376 40.3158 5.35 40.4158 5.298C40.5198 5.246 40.6078 5.176 40.6798 5.088C40.7518 5 40.8078 4.898 40.8478 4.782C40.8878 4.666 40.9078 4.546 40.9078 4.422C40.9078 4.29 40.8858 4.168 40.8418 4.056C40.7978 3.94 40.7358 3.84 40.6558 3.756C40.5798 3.672 40.4878 3.606 40.3798 3.558C40.2758 3.51 40.1618 3.486 40.0378 3.486C39.9618 3.486 39.8838 3.5 39.8038 3.528C39.7238 3.552 39.6498 3.588 39.5818 3.636C39.5138 3.684 39.4518 3.74 39.3958 3.804C39.3438 3.868 39.3038 3.938 39.2758 4.014V4.752C39.3478 4.932 39.4578 5.082 39.6058 5.202C39.7538 5.318 39.9138 5.376 40.0858 5.376ZM43.0783 4.854L44.5663 2.856H45.1603V6H44.3623V4.056L42.8923 6H42.2803V2.856H43.0783V4.854ZM47.785 2.856C47.901 2.856 48.007 2.878 48.103 2.922C48.199 2.962 48.281 3.018 48.349 3.09C48.421 3.162 48.475 3.246 48.511 3.342C48.551 3.438 48.571 3.54 48.571 3.648C48.571 3.784 48.535 3.922 48.463 4.062C48.391 4.198 48.273 4.3 48.109 4.368C48.293 4.42 48.437 4.51 48.541 4.638C48.649 4.762 48.703 4.932 48.703 5.148C48.703 5.436 48.603 5.65 48.403 5.79C48.203 5.93 47.927 6 47.575 6H45.925V2.856H47.785ZM47.407 4.17C47.519 4.17 47.609 4.138 47.677 4.074C47.745 4.01 47.779 3.918 47.779 3.798C47.779 3.698 47.749 3.614 47.689 3.546C47.633 3.474 47.547 3.438 47.431 3.438H46.723V4.17H47.407ZM47.515 5.418C47.631 5.418 47.723 5.38 47.791 5.304C47.863 5.228 47.899 5.136 47.899 5.028C47.899 4.916 47.865 4.824 47.797 4.752C47.729 4.676 47.637 4.638 47.521 4.638H46.723V5.418H47.515ZM49.2589 2.856H50.0569V3.852H50.5849C50.7569 3.852 50.9149 3.876 51.0589 3.924C51.2069 3.968 51.3349 4.036 51.4429 4.128C51.5509 4.216 51.6349 4.328 51.6949 4.464C51.7589 4.596 51.7909 4.748 51.7909 4.92C51.7909 5.096 51.7609 5.252 51.7009 5.388C51.6409 5.52 51.5569 5.632 51.4489 5.724C51.3449 5.816 51.2209 5.886 51.0769 5.934C50.9369 5.978 50.7829 6 50.6149 6H49.2589V2.856ZM52.1329 2.856H52.9249V6H52.1329V2.856ZM50.5309 5.37C50.6669 5.37 50.7749 5.334 50.8549 5.262C50.9349 5.186 50.9749 5.076 50.9749 4.932C50.9749 4.788 50.9329 4.678 50.8489 4.602C50.7649 4.522 50.6589 4.482 50.5309 4.482H50.0569V5.37H50.5309ZM56.0047 6H55.2187V4.878C55.1267 4.91 55.0307 4.934 54.9307 4.95C54.8347 4.966 54.7127 4.974 54.5647 4.974C54.3847 4.974 54.2287 4.946 54.0967 4.89C53.9647 4.83 53.8547 4.752 53.7667 4.656C53.6787 4.556 53.6127 4.44 53.5687 4.308C53.5247 4.176 53.5027 4.034 53.5027 3.882V2.856H54.2767V3.762C54.2767 3.97 54.3187 4.118 54.4027 4.206C54.4867 4.294 54.6047 4.338 54.7567 4.338C54.8687 4.338 54.9607 4.328 55.0327 4.308C55.1087 4.284 55.1707 4.254 55.2187 4.218V2.856H56.0047V6ZM58.6849 2.856H59.5489L58.3249 4.38L59.6449 6H58.7329L57.7609 4.788H57.5509V6H56.7589V2.856H57.5509V4.104H57.7309L58.6849 2.856ZM60.7912 4.854L62.2792 2.856H62.8732V6H62.0752V4.056L60.6052 6H59.9932V2.856H60.7912V4.854Z" fill="#005326"/>
</svg>
