<svg width="24" height="8" viewBox="0 0 24 8" fill="none" xmlns="http://www.w3.org/2000/svg">
<rect x="0.25" y="0.25" width="23.5" height="7.5" rx="3.75" fill="white" stroke="#005326" stroke-width="0.5"/>
<path d="M6.462 6V1.74H8.268C8.464 1.74 8.644 1.782 8.808 1.866C8.976 1.946 9.12 2.054 9.24 2.19C9.36 2.322 9.454 2.474 9.522 2.646C9.59 2.814 9.624 2.984 9.624 3.156C9.624 3.336 9.592 3.512 9.528 3.684C9.464 3.852 9.374 4.002 9.258 4.134C9.142 4.266 9.002 4.372 8.838 4.452C8.674 4.532 8.494 4.572 8.298 4.572H7.29V6H6.462ZM7.29 3.846H8.25C8.402 3.846 8.528 3.784 8.628 3.66C8.732 3.536 8.784 3.368 8.784 3.156C8.784 3.048 8.768 2.952 8.736 2.868C8.704 2.78 8.662 2.706 8.61 2.646C8.558 2.586 8.496 2.542 8.424 2.514C8.356 2.482 8.286 2.466 8.214 2.466H7.29V3.846ZM10.2179 1.74H13.7279V6H12.9059V2.466H11.0399V6H10.2179V1.74ZM14.6593 1.74H18.1693V6H17.3473V2.466H15.4813V6H14.6593V1.74Z" fill="#005326"/>
</svg>
