<svg width="51" height="8" viewBox="0 0 51 8" fill="none" xmlns="http://www.w3.org/2000/svg">
<rect x="0.25" y="0.25" width="50.5" height="7.5" rx="3.75" fill="white" stroke="#005326" stroke-width="0.5"/>
<path d="M6.462 1.74H9.972V6H9.15V2.466H7.284V6H6.462V1.74ZM12.2184 6.06C11.9624 6.06 11.7324 6.016 11.5284 5.928C11.3244 5.84 11.1504 5.722 11.0064 5.574C10.8664 5.422 10.7584 5.248 10.6824 5.052C10.6064 4.856 10.5684 4.65 10.5684 4.434C10.5684 4.214 10.6064 4.006 10.6824 3.81C10.7584 3.614 10.8664 3.442 11.0064 3.294C11.1504 3.142 11.3244 3.022 11.5284 2.934C11.7324 2.846 11.9624 2.802 12.2184 2.802C12.4744 2.802 12.7024 2.846 12.9024 2.934C13.1064 3.022 13.2784 3.142 13.4184 3.294C13.5624 3.442 13.6724 3.614 13.7484 3.81C13.8244 4.006 13.8624 4.214 13.8624 4.434C13.8624 4.65 13.8244 4.856 13.7484 5.052C13.6724 5.248 13.5644 5.422 13.4244 5.574C13.2844 5.722 13.1124 5.84 12.9084 5.928C12.7044 6.016 12.4744 6.06 12.2184 6.06ZM11.3964 4.434C11.3964 4.574 11.4164 4.702 11.4564 4.818C11.5004 4.93 11.5584 5.028 11.6304 5.112C11.7064 5.196 11.7944 5.262 11.8944 5.31C11.9944 5.354 12.1024 5.376 12.2184 5.376C12.3344 5.376 12.4424 5.354 12.5424 5.31C12.6424 5.262 12.7284 5.196 12.8004 5.112C12.8764 5.028 12.9344 4.928 12.9744 4.812C13.0184 4.696 13.0404 4.568 13.0404 4.428C13.0404 4.292 13.0184 4.166 12.9744 4.05C12.9344 3.934 12.8764 3.834 12.8004 3.75C12.7284 3.666 12.6424 3.602 12.5424 3.558C12.4424 3.51 12.3344 3.486 12.2184 3.486C12.1024 3.486 11.9944 3.51 11.8944 3.558C11.7944 3.606 11.7064 3.672 11.6304 3.756C11.5584 3.84 11.5004 3.94 11.4564 4.056C11.4164 4.172 11.3964 4.298 11.3964 4.434ZM13.9943 5.304H14.1623C14.2583 5.292 14.3363 5.262 14.3963 5.214C14.4603 5.162 14.5143 5.082 14.5583 4.974C14.6063 4.862 14.6443 4.714 14.6723 4.53C14.7043 4.346 14.7363 4.112 14.7683 3.828L14.8763 2.856H17.0783V5.304H17.4983V6.9H16.7843V6H14.6843V6.9H13.9943V5.304ZM16.2803 5.304V3.528H15.5783L15.5183 4.002C15.4783 4.326 15.4283 4.59 15.3683 4.794C15.3123 4.998 15.2403 5.168 15.1523 5.304H16.2803ZM19.5684 2.502C19.3164 2.558 19.1164 2.666 18.9684 2.826C18.8244 2.986 18.7264 3.216 18.6744 3.516C18.7984 3.364 18.9484 3.248 19.1244 3.168C19.3004 3.084 19.4984 3.042 19.7184 3.042C19.9104 3.042 20.0904 3.08 20.2584 3.156C20.4264 3.232 20.5724 3.336 20.6964 3.468C20.8244 3.6 20.9244 3.756 20.9964 3.936C21.0724 4.116 21.1104 4.31 21.1104 4.518C21.1104 4.734 21.0724 4.936 20.9964 5.124C20.9244 5.312 20.8184 5.476 20.6784 5.616C20.5424 5.752 20.3744 5.86 20.1744 5.94C19.9744 6.02 19.7484 6.06 19.4964 6.06C18.9764 6.06 18.5824 5.898 18.3144 5.574C18.0464 5.246 17.9124 4.768 17.9124 4.14C17.9124 3.784 17.9464 3.474 18.0144 3.21C18.0824 2.942 18.1844 2.716 18.3204 2.532C18.4604 2.344 18.6324 2.192 18.8364 2.076C19.0444 1.96 19.2844 1.872 19.5564 1.812L20.7204 1.554L20.7744 2.232L19.5684 2.502ZM18.7344 4.5C18.7344 4.632 18.7544 4.752 18.7944 4.86C18.8344 4.968 18.8884 5.062 18.9564 5.142C19.0244 5.218 19.1064 5.278 19.2024 5.322C19.2984 5.366 19.4044 5.388 19.5204 5.388C19.7484 5.388 19.9324 5.31 20.0724 5.154C20.2124 4.994 20.2824 4.784 20.2824 4.524C20.2824 4.284 20.2104 4.09 20.0664 3.942C19.9224 3.79 19.7324 3.714 19.4964 3.714C19.2724 3.714 19.0884 3.786 18.9444 3.93C18.8044 4.074 18.7344 4.264 18.7344 4.5ZM23.1168 6.06C22.8608 6.06 22.6308 6.016 22.4268 5.928C22.2228 5.84 22.0488 5.722 21.9048 5.574C21.7648 5.422 21.6568 5.248 21.5808 5.052C21.5048 4.856 21.4668 4.65 21.4668 4.434C21.4668 4.214 21.5048 4.006 21.5808 3.81C21.6568 3.614 21.7648 3.442 21.9048 3.294C22.0488 3.142 22.2228 3.022 22.4268 2.934C22.6308 2.846 22.8608 2.802 23.1168 2.802C23.3728 2.802 23.6008 2.846 23.8008 2.934C24.0048 3.022 24.1768 3.142 24.3168 3.294C24.4608 3.442 24.5708 3.614 24.6468 3.81C24.7228 4.006 24.7608 4.214 24.7608 4.434C24.7608 4.65 24.7228 4.856 24.6468 5.052C24.5708 5.248 24.4628 5.422 24.3228 5.574C24.1828 5.722 24.0108 5.84 23.8068 5.928C23.6028 6.016 23.3728 6.06 23.1168 6.06ZM22.2948 4.434C22.2948 4.574 22.3148 4.702 22.3548 4.818C22.3988 4.93 22.4568 5.028 22.5288 5.112C22.6048 5.196 22.6928 5.262 22.7928 5.31C22.8928 5.354 23.0008 5.376 23.1168 5.376C23.2328 5.376 23.3408 5.354 23.4408 5.31C23.5408 5.262 23.6268 5.196 23.6988 5.112C23.7748 5.028 23.8328 4.928 23.8728 4.812C23.9168 4.696 23.9388 4.568 23.9388 4.428C23.9388 4.292 23.9168 4.166 23.8728 4.05C23.8328 3.934 23.7748 3.834 23.6988 3.75C23.6268 3.666 23.5408 3.602 23.4408 3.558C23.3408 3.51 23.2328 3.486 23.1168 3.486C23.0008 3.486 22.8928 3.51 22.7928 3.558C22.6928 3.606 22.6048 3.672 22.5288 3.756C22.4568 3.84 22.3988 3.94 22.3548 4.056C22.3148 4.172 22.2948 4.298 22.2948 4.434ZM27.1995 6.06C26.9515 6.06 26.7355 6.006 26.5515 5.898C26.3675 5.786 26.2235 5.636 26.1195 5.448V7.278H25.3155V2.856H26.0175V3.396C26.1335 3.212 26.2835 3.068 26.4675 2.964C26.6515 2.856 26.8635 2.802 27.1035 2.802C27.3155 2.802 27.5115 2.846 27.6915 2.934C27.8715 3.018 28.0255 3.134 28.1535 3.282C28.2855 3.426 28.3875 3.598 28.4595 3.798C28.5355 3.994 28.5735 4.202 28.5735 4.422C28.5735 4.65 28.5395 4.864 28.4715 5.064C28.4035 5.264 28.3075 5.438 28.1835 5.586C28.0635 5.734 27.9195 5.85 27.7515 5.934C27.5835 6.018 27.3995 6.06 27.1995 6.06ZM26.9295 5.376C27.0495 5.376 27.1595 5.35 27.2595 5.298C27.3635 5.246 27.4515 5.176 27.5235 5.088C27.5955 5 27.6515 4.898 27.6915 4.782C27.7315 4.666 27.7515 4.546 27.7515 4.422C27.7515 4.29 27.7295 4.168 27.6855 4.056C27.6415 3.94 27.5795 3.84 27.4995 3.756C27.4235 3.672 27.3315 3.606 27.2235 3.558C27.1195 3.51 27.0055 3.486 26.8815 3.486C26.8055 3.486 26.7275 3.5 26.6475 3.528C26.5675 3.552 26.4935 3.588 26.4255 3.636C26.3575 3.684 26.2955 3.74 26.2395 3.804C26.1875 3.868 26.1475 3.938 26.1195 4.014V4.752C26.1915 4.932 26.3015 5.082 26.4495 5.202C26.5975 5.318 26.7575 5.376 26.9295 5.376ZM30.2775 5.304H30.4455C30.5415 5.292 30.6195 5.262 30.6795 5.214C30.7435 5.162 30.7975 5.082 30.8415 4.974C30.8895 4.862 30.9275 4.714 30.9555 4.53C30.9875 4.346 31.0195 4.112 31.0515 3.828L31.1595 2.856H33.3615V5.304H33.7815V6.9H33.0675V6H30.9675V6.9H30.2775V5.304ZM32.5635 5.304V3.528H31.8615L31.8015 4.002C31.7615 4.326 31.7115 4.59 31.6515 4.794C31.5955 4.998 31.5235 5.168 31.4355 5.304H32.5635ZM35.1369 4.854L36.6249 2.856H37.2189V6H36.4209V4.056L34.9509 6H34.3389V2.856H35.1369V4.854ZM39.4236 6.06C39.1716 6.06 38.9436 6.018 38.7396 5.934C38.5356 5.846 38.3616 5.728 38.2176 5.58C38.0736 5.432 37.9616 5.26 37.8816 5.064C37.8056 4.868 37.7676 4.662 37.7676 4.446C37.7676 4.222 37.8056 4.012 37.8816 3.816C37.9576 3.616 38.0676 3.442 38.2116 3.294C38.3556 3.142 38.5296 3.022 38.7336 2.934C38.9416 2.846 39.1736 2.802 39.4296 2.802C39.6856 2.802 39.9136 2.846 40.1136 2.934C40.3176 3.022 40.4896 3.14 40.6296 3.288C40.7736 3.436 40.8816 3.608 40.9536 3.804C41.0296 4 41.0676 4.204 41.0676 4.416C41.0676 4.468 41.0656 4.518 41.0616 4.566C41.0616 4.614 41.0576 4.654 41.0496 4.686H38.6196C38.6316 4.81 38.6616 4.92 38.7096 5.016C38.7576 5.112 38.8196 5.194 38.8956 5.262C38.9716 5.33 39.0576 5.382 39.1536 5.418C39.2496 5.454 39.3496 5.472 39.4536 5.472C39.6136 5.472 39.7636 5.434 39.9036 5.358C40.0476 5.278 40.1456 5.174 40.1976 5.046L40.8876 5.238C40.7716 5.478 40.5856 5.676 40.3296 5.832C40.0776 5.984 39.7756 6.06 39.4236 6.06ZM40.2396 4.164C40.2196 3.928 40.1316 3.74 39.9756 3.6C39.8236 3.456 39.6376 3.384 39.4176 3.384C39.3096 3.384 39.2076 3.404 39.1116 3.444C39.0196 3.48 38.9376 3.532 38.8656 3.6C38.7936 3.668 38.7336 3.75 38.6856 3.846C38.6416 3.942 38.6156 4.048 38.6076 4.164H40.2396ZM42.9406 6H42.1426V3.552H41.1586V2.856H43.9186V3.552H42.9406V6Z" fill="#005326"/>
</svg>
