<svg width="17" height="17" viewBox="0 0 17 17" fill="none" xmlns="http://www.w3.org/2000/svg">
<path d="M2.125 8.5H8.5V9.5625H2.125V8.5ZM1.0625 5.84375H6.375V6.90625H1.0625V5.84375Z" fill="white"/>
<path d="M15.8944 8.82194L14.3006 5.10319C14.2597 5.0076 14.1917 4.92614 14.1049 4.86891C14.0181 4.81167 13.9164 4.78119 13.8124 4.78125H12.2187V3.71875C12.2187 3.57785 12.1627 3.44273 12.0631 3.3431C11.9634 3.24347 11.8283 3.1875 11.6874 3.1875H3.1874V4.25H11.1562V10.9204C10.9141 11.0609 10.7022 11.248 10.5328 11.4709C10.3634 11.6937 10.2398 11.9479 10.1691 12.2188H6.83072C6.70141 11.718 6.39391 11.2815 5.96584 10.9912C5.53777 10.701 5.01852 10.5768 4.50543 10.6419C3.99235 10.7071 3.52064 10.9572 3.17873 11.3453C2.83683 11.7333 2.64819 12.2328 2.64819 12.75C2.64819 13.2672 2.83683 13.7667 3.17873 14.1547C3.52064 14.5428 3.99235 14.7929 4.50543 14.8581C5.01852 14.9232 5.53777 14.799 5.96584 14.5088C6.39391 14.2185 6.70141 13.782 6.83072 13.2812H10.1691C10.2847 13.7372 10.549 14.1416 10.9202 14.4304C11.2914 14.7193 11.7483 14.8761 12.2187 14.8761C12.689 14.8761 13.1459 14.7193 13.5171 14.4304C13.8884 14.1416 14.1526 13.7372 14.2682 13.2812H15.4062C15.547 13.2812 15.6822 13.2253 15.7818 13.1257C15.8814 13.026 15.9374 12.8909 15.9374 12.75V9.03125C15.9374 8.95928 15.9228 8.88806 15.8944 8.82194ZM4.78115 13.8125C4.57101 13.8125 4.36559 13.7502 4.19086 13.6334C4.01613 13.5167 3.87995 13.3507 3.79953 13.1566C3.71911 12.9625 3.69807 12.7488 3.73907 12.5427C3.78007 12.3366 3.88126 12.1473 4.02985 11.9987C4.17845 11.8501 4.36776 11.7489 4.57387 11.7079C4.77997 11.6669 4.99361 11.688 5.18775 11.7684C5.3819 11.8488 5.54784 11.985 5.66459 12.1597C5.78134 12.3344 5.84365 12.5399 5.84365 12.75C5.84337 13.0317 5.73134 13.3018 5.53214 13.501C5.33295 13.7002 5.06286 13.8122 4.78115 13.8125ZM12.2187 5.84375H13.4618L14.6008 8.5H12.2187V5.84375ZM12.2187 13.8125C12.0085 13.8125 11.8031 13.7502 11.6284 13.6334C11.4536 13.5167 11.3174 13.3507 11.237 13.1566C11.1566 12.9625 11.1356 12.7488 11.1766 12.5427C11.2176 12.3366 11.3188 12.1473 11.4674 11.9987C11.6159 11.8501 11.8053 11.7489 12.0114 11.7079C12.2175 11.6669 12.4311 11.688 12.6253 11.7684C12.8194 11.8488 12.9853 11.985 13.1021 12.1597C13.2188 12.3344 13.2812 12.5399 13.2812 12.75C13.2809 13.0317 13.1688 13.3018 12.9696 13.501C12.7704 13.7002 12.5004 13.8122 12.2187 13.8125ZM14.8749 12.2188H14.2682C14.1512 11.7637 13.8865 11.3603 13.5156 11.0719C13.1446 10.7835 12.6885 10.6263 12.2187 10.625V9.5625H14.8749V12.2188Z" fill="white"/>
</svg>
