<svg width="21" height="21" viewBox="0 0 21 21" fill="none" xmlns="http://www.w3.org/2000/svg">
<path d="M11.2219 13.8101C10.6531 13.813 10.0969 13.7521 9.55325 13.6273C9.01017 13.5024 8.54204 13.2437 8.14887 12.8511C7.83504 12.5367 7.59296 12.1777 7.42262 11.774C7.25346 11.3698 7.16887 10.9468 7.16887 10.5052C7.16887 10.3145 7.18171 10.1331 7.20738 9.961C7.23304 9.78833 7.27883 9.61421 7.34475 9.43862C7.38092 9.33071 7.37742 9.22571 7.33425 9.12362C7.29108 9.02154 7.22283 8.95096 7.1295 8.91188C7.03325 8.87221 6.93496 8.87512 6.83462 8.92062C6.73429 8.96612 6.66604 9.04196 6.62988 9.14812C6.55696 9.36746 6.4995 9.58913 6.4575 9.81313C6.4155 10.0377 6.3945 10.2667 6.3945 10.5C6.3945 11.0495 6.49892 11.5736 6.70775 12.0724C6.91717 12.5711 7.21467 13.0133 7.60025 13.3989C8.05058 13.8638 8.58958 14.1773 9.21725 14.3395C9.84492 14.5028 10.4822 14.586 11.1291 14.5889L10.2865 15.4324C10.2107 15.507 10.1701 15.5954 10.1649 15.6975C10.159 15.7996 10.1996 15.8938 10.2865 15.9801C10.3728 16.067 10.4641 16.1105 10.5604 16.1105C10.6572 16.1105 10.7488 16.067 10.8351 15.9801L12.1678 14.6475C12.3089 14.5063 12.3795 14.3415 12.3795 14.1531C12.3795 13.9647 12.3089 13.7999 12.1678 13.6587L10.8351 12.3261C10.7593 12.2503 10.6706 12.2098 10.5691 12.2045C10.467 12.1987 10.3728 12.2392 10.2865 12.3261C10.2002 12.4125 10.157 12.5037 10.157 12.6C10.157 12.6962 10.2002 12.7875 10.2865 12.8739L11.2219 13.8101ZM9.7895 7.1855C10.3582 7.1855 10.9153 7.24792 11.4607 7.37275C12.0062 7.49758 12.4752 7.75629 12.8678 8.14887C13.1816 8.46329 13.4237 8.82233 13.594 9.226C13.7632 9.63025 13.8477 10.0532 13.8477 10.4948C13.8477 10.6855 13.8352 10.8669 13.8101 11.039C13.7839 11.2117 13.7378 11.3858 13.6719 11.5614C13.6357 11.6693 13.6395 11.7752 13.6832 11.879C13.7264 11.9828 13.7944 12.0543 13.8871 12.0934C13.984 12.1325 14.0825 12.1325 14.1829 12.0934C14.2832 12.0543 14.3512 11.9808 14.3867 11.8729C14.4597 11.6541 14.5171 11.429 14.5591 11.1974C14.6017 10.9658 14.623 10.7333 14.623 10.5C14.623 9.9505 14.52 9.42637 14.3141 8.92763C14.1082 8.42887 13.8107 7.98496 13.4216 7.59587C12.9684 7.13154 12.4279 6.81888 11.8003 6.65788C11.1726 6.49688 10.535 6.41638 9.8875 6.41638L10.7362 5.56763C10.8074 5.49296 10.8459 5.40458 10.8518 5.3025C10.8576 5.20042 10.817 5.10621 10.7301 5.01988C10.6438 4.93296 10.5525 4.8895 10.4562 4.8895C10.36 4.8895 10.2687 4.93296 10.1824 5.01988L8.84888 6.3525C8.70771 6.49367 8.63713 6.65846 8.63713 6.84687C8.63713 7.03529 8.70771 7.20008 8.84888 7.34125L10.1824 8.67387C10.257 8.74971 10.3454 8.79025 10.4475 8.7955C10.5496 8.80133 10.6438 8.76079 10.7301 8.67387C10.817 8.58754 10.8605 8.49625 10.8605 8.4C10.8605 8.30375 10.817 8.21246 10.7301 8.12612L9.7895 7.1855ZM10.5 18.375C9.41325 18.375 8.39067 18.1679 7.43225 17.7538C6.47383 17.3396 5.64054 16.7775 4.93237 16.0676C4.22246 15.3589 3.66042 14.5256 3.24625 13.5677C2.83208 12.6093 2.625 11.5868 2.625 10.5C2.625 9.41325 2.83208 8.39067 3.24625 7.43225C3.661 6.47442 4.22304 5.64112 4.93237 4.93237C5.64112 4.22246 6.47442 3.66042 7.43225 3.24625C8.39067 2.83208 9.41325 2.625 10.5 2.625C11.5868 2.625 12.6093 2.83208 13.5677 3.24625C14.5256 3.661 15.3589 4.22304 16.0676 4.93237C16.777 5.64112 17.3387 6.47442 17.7529 7.43225C18.1676 8.39067 18.375 9.41325 18.375 10.5C18.375 11.5868 18.1679 12.6093 17.7538 13.5677C17.339 14.5256 16.777 15.3589 16.0676 16.0676C15.3589 16.777 14.5256 17.3387 13.5677 17.7529C12.6093 18.1676 11.5868 18.375 10.5 18.375ZM10.5 17.5C12.4542 17.5 14.1094 16.8219 15.4656 15.4656C16.8219 14.1094 17.5 12.4542 17.5 10.5C17.5 8.54583 16.8219 6.89062 15.4656 5.53437C14.1094 4.17812 12.4542 3.5 10.5 3.5C8.54583 3.5 6.89062 4.17812 5.53437 5.53437C4.17812 6.89062 3.5 8.54583 3.5 10.5C3.5 12.4542 4.17812 14.1094 5.53437 15.4656C6.89062 16.8219 8.54583 17.5 10.5 17.5Z" fill="#D27C2C"/>
</svg>
