<svg width="44" height="45" viewBox="0 0 44 45" fill="none" xmlns="http://www.w3.org/2000/svg">
<path d="M15.0455 20.6364C17.5168 20.6364 19.8869 19.6546 21.6344 17.9071C23.3819 16.1596 24.3636 13.7895 24.3636 11.3182C24.3636 8.84685 23.3819 6.47673 21.6344 4.72923C19.8869 2.98173 17.5168 2 15.0455 2C12.5741 2 10.204 2.98173 8.45651 4.72923C6.70901 6.47673 5.72727 8.84685 5.72727 11.3182C5.72727 13.7895 6.70901 16.1596 8.45651 17.9071C10.204 19.6546 12.5741 20.6364 15.0455 20.6364ZM15.0455 20.6364C18.797 20.6364 22.0751 22.0527 24.4065 24.4065C25.789 25.8077 26.8231 27.514 27.4256 29.388M15.0455 20.6364C7.59091 20.6364 2 26.2273 2 33.6818V43H20.6364M22.5 35.2175L30.3086 41.1364L43 24.3636" stroke="#777777" stroke-width="2.5"/>
</svg>
