<svg width="315" height="119" viewBox="0 0 315 119" fill="none" xmlns="http://www.w3.org/2000/svg">
<rect width="315" height="119" rx="21" fill="#005627"/>
<path d="M16.84 20.48C17.2933 19.88 17.8267 19.4333 18.44 19.14C19.0667 18.8467 19.84 18.7 20.76 18.7C22.08 18.7 23.1 18.9867 23.82 19.56C24.5533 20.1333 24.92 20.9667 24.92 22.06C24.92 22.8733 24.72 23.5733 24.32 24.16C23.92 24.7333 23.36 25.1067 22.64 25.28C23.52 25.3867 24.2267 25.74 24.76 26.34C25.2933 26.94 25.56 27.72 25.56 28.68C25.56 29.32 25.4333 29.9133 25.18 30.46C24.94 30.9933 24.6 31.46 24.16 31.86C23.72 32.2467 23.2 32.5533 22.6 32.78C22 32.9933 21.3467 33.1 20.64 33.1C19.6933 33.1 18.8533 32.9067 18.12 32.52C17.3867 32.1333 16.8267 31.5867 16.44 30.88L17.88 29.82C18.1867 30.3267 18.5667 30.7267 19.02 31.02C19.4733 31.3133 20.04 31.46 20.72 31.46C21.16 31.46 21.56 31.3933 21.92 31.26C22.2933 31.1267 22.6133 30.9467 22.88 30.72C23.1467 30.48 23.3533 30.2 23.5 29.88C23.66 29.5467 23.74 29.1867 23.74 28.8C23.74 27.96 23.4 27.3 22.72 26.82C22.0533 26.3267 21.12 26.08 19.92 26.08H18.84V24.48H19.92C20.92 24.48 21.7067 24.28 22.28 23.88C22.8533 23.48 23.14 22.92 23.14 22.2C23.14 21.5467 22.9133 21.06 22.46 20.74C22.02 20.42 21.46 20.26 20.78 20.26C20.18 20.26 19.64 20.38 19.16 20.62C18.68 20.8467 18.3067 21.1733 18.04 21.6L16.84 20.48ZM30.4711 33.2C29.9778 33.2 29.5178 33.12 29.0911 32.96C28.6644 32.7867 28.2911 32.5533 27.9711 32.26C27.6644 31.9667 27.4178 31.6267 27.2311 31.24C27.0578 30.84 26.9711 30.4067 26.9711 29.94C26.9711 29.46 27.0778 29.0267 27.2911 28.64C27.5044 28.24 27.8044 27.9 28.1911 27.62C28.5911 27.34 29.0578 27.12 29.5911 26.96C30.1378 26.8 30.7311 26.72 31.3711 26.72C31.8778 26.72 32.3911 26.7667 32.9111 26.86C33.4311 26.9533 33.8911 27.08 34.2911 27.24V26.4C34.2911 25.5467 34.0511 24.88 33.5711 24.4C33.0911 23.9067 32.4111 23.66 31.5311 23.66C30.4778 23.66 29.3711 24.0667 28.2111 24.88L27.6311 23.74C28.9778 22.8333 30.3311 22.38 31.6911 22.38C33.0644 22.38 34.1311 22.7467 34.8911 23.48C35.6644 24.2133 36.0511 25.2467 36.0511 26.58V30.84C36.0511 31.2533 36.2378 31.4667 36.6111 31.48V33C36.4244 33.0267 36.2711 33.0467 36.1511 33.06C36.0311 33.0733 35.9044 33.08 35.7711 33.08C35.4244 33.08 35.1444 32.98 34.9311 32.78C34.7311 32.5667 34.6111 32.3133 34.5711 32.02L34.5311 31.28C34.0644 31.9067 33.4711 32.3867 32.7511 32.72C32.0444 33.04 31.2844 33.2 30.4711 33.2ZM30.9311 31.88C31.5578 31.88 32.1378 31.7667 32.6711 31.54C33.2178 31.3 33.6311 30.9867 33.9111 30.6C34.1644 30.3467 34.2911 30.0867 34.2911 29.82V28.28C33.4378 27.9467 32.5511 27.78 31.6311 27.78C30.7511 27.78 30.0311 27.9667 29.4711 28.34C28.9244 28.7133 28.6511 29.2 28.6511 29.8C28.6511 30.0933 28.7044 30.3667 28.8111 30.62C28.9311 30.8733 29.0911 31.0933 29.2911 31.28C29.5044 31.4667 29.7511 31.6133 30.0311 31.72C30.3111 31.8267 30.6111 31.88 30.9311 31.88ZM45.1448 22.56H47.1048L43.0048 27.64L47.3848 33H45.4448L41.8648 28.42H40.6448V33H38.9248V22.56H40.6448V27.1H41.6648L45.1448 22.56ZM51.3891 33.2C50.8957 33.2 50.4357 33.12 50.0091 32.96C49.5824 32.7867 49.2091 32.5533 48.8891 32.26C48.5824 31.9667 48.3357 31.6267 48.1491 31.24C47.9757 30.84 47.8891 30.4067 47.8891 29.94C47.8891 29.46 47.9957 29.0267 48.2091 28.64C48.4224 28.24 48.7224 27.9 49.1091 27.62C49.5091 27.34 49.9757 27.12 50.5091 26.96C51.0557 26.8 51.6491 26.72 52.2891 26.72C52.7957 26.72 53.3091 26.7667 53.8291 26.86C54.3491 26.9533 54.8091 27.08 55.2091 27.24V26.4C55.2091 25.5467 54.9691 24.88 54.4891 24.4C54.0091 23.9067 53.3291 23.66 52.4491 23.66C51.3957 23.66 50.2891 24.0667 49.1291 24.88L48.5491 23.74C49.8957 22.8333 51.2491 22.38 52.6091 22.38C53.9824 22.38 55.0491 22.7467 55.8091 23.48C56.5824 24.2133 56.9691 25.2467 56.9691 26.58V30.84C56.9691 31.2533 57.1557 31.4667 57.5291 31.48V33C57.3424 33.0267 57.1891 33.0467 57.0691 33.06C56.9491 33.0733 56.8224 33.08 56.6891 33.08C56.3424 33.08 56.0624 32.98 55.8491 32.78C55.6491 32.5667 55.5291 32.3133 55.4891 32.02L55.4491 31.28C54.9824 31.9067 54.3891 32.3867 53.6691 32.72C52.9624 33.04 52.2024 33.2 51.3891 33.2ZM51.8491 31.88C52.4757 31.88 53.0557 31.7667 53.5891 31.54C54.1357 31.3 54.5491 30.9867 54.8291 30.6C55.0824 30.3467 55.2091 30.0867 55.2091 29.82V28.28C54.3557 27.9467 53.4691 27.78 52.5491 27.78C51.6691 27.78 50.9491 27.9667 50.3891 28.34C49.8424 28.7133 49.5691 29.2 49.5691 29.8C49.5691 30.0933 49.6224 30.3667 49.7291 30.62C49.8491 30.8733 50.0091 31.0933 50.2091 31.28C50.4224 31.4667 50.6691 31.6133 50.9491 31.72C51.2291 31.8267 51.5291 31.88 51.8491 31.88ZM59.2228 23.64C59.9961 22.8 60.9895 22.38 62.2028 22.38C63.1228 22.38 63.8628 22.6133 64.4228 23.08C64.9828 23.5333 65.2628 24.1467 65.2628 24.92C65.2628 25.5333 65.0961 26.0533 64.7628 26.48C64.4428 26.8933 64.0028 27.1333 63.4428 27.2C64.2028 27.2933 64.7961 27.5867 65.2228 28.08C65.6628 28.56 65.8828 29.18 65.8828 29.94C65.8828 30.42 65.7895 30.86 65.6028 31.26C65.4295 31.66 65.1761 32.0067 64.8428 32.3C64.5095 32.58 64.1095 32.8 63.6428 32.96C63.1895 33.12 62.6828 33.2 62.1228 33.2C60.7895 33.2 59.7161 32.6933 58.9028 31.68L59.8428 30.46C60.1495 30.8867 60.4895 31.2 60.8628 31.4C61.2361 31.5867 61.6761 31.68 62.1828 31.68C62.8228 31.68 63.3161 31.5333 63.6628 31.24C64.0095 30.9333 64.1828 30.5 64.1828 29.94C64.1828 29.3 63.9561 28.8133 63.5028 28.48C63.0495 28.1333 62.3895 27.96 61.5228 27.96H60.8228V26.62H61.5228C62.1761 26.62 62.6895 26.48 63.0628 26.2C63.4495 25.92 63.6428 25.54 63.6428 25.06C63.6428 24.66 63.5028 24.3467 63.2228 24.12C62.9428 23.88 62.5628 23.76 62.0828 23.76C61.3895 23.76 60.7228 24.0533 60.0828 24.64L59.2228 23.64ZM79.3445 22.44C80.1579 22.52 80.8779 22.7133 81.5045 23.02C82.1445 23.3133 82.6845 23.7 83.1245 24.18C83.5645 24.6467 83.8979 25.1933 84.1245 25.82C84.3645 26.4333 84.4845 27.1067 84.4845 27.84C84.4845 28.5733 84.3645 29.2467 84.1245 29.86C83.8979 30.4733 83.5645 31.0133 83.1245 31.48C82.6845 31.9333 82.1445 32.3067 81.5045 32.6C80.8779 32.88 80.1579 33.06 79.3445 33.14V37.26H77.5845V33.16C76.7579 33.08 76.0179 32.9 75.3645 32.62C74.7245 32.3267 74.1779 31.9533 73.7245 31.5C73.2845 31.0333 72.9445 30.4933 72.7045 29.88C72.4779 29.2533 72.3645 28.5733 72.3645 27.84C72.3645 27.0933 72.4779 26.4067 72.7045 25.78C72.9445 25.1533 73.2845 24.6067 73.7245 24.14C74.1779 23.66 74.7245 23.2733 75.3645 22.98C76.0179 22.6867 76.7579 22.5 77.5845 22.42V18.4H79.3445V22.44ZM77.5845 24.08C75.3179 24.32 74.1845 25.5467 74.1845 27.76C74.1845 28.88 74.4712 29.76 75.0445 30.4C75.6179 31.0267 76.4645 31.4067 77.5845 31.54V24.08ZM79.3445 31.54C80.4245 31.3933 81.2445 31.0067 81.8045 30.38C82.3779 29.74 82.6645 28.8667 82.6645 27.76C82.6645 26.68 82.3845 25.8333 81.8245 25.22C81.2645 24.5933 80.4379 24.2133 79.3445 24.08V31.54ZM91.2392 33.2C90.4526 33.2 89.7326 33.06 89.0792 32.78C88.4259 32.4867 87.8659 32.0933 87.3992 31.6C86.9326 31.1067 86.5659 30.5333 86.2992 29.88C86.0459 29.2133 85.9192 28.5133 85.9192 27.78C85.9192 27.0467 86.0459 26.3533 86.2992 25.7C86.5659 25.0467 86.9326 24.4733 87.3992 23.98C87.8792 23.4867 88.4459 23.1 89.0992 22.82C89.7526 22.5267 90.4726 22.38 91.2592 22.38C92.0459 22.38 92.7592 22.5267 93.3992 22.82C94.0526 23.1133 94.6059 23.5067 95.0592 24C95.5126 24.48 95.8592 25.0467 96.0992 25.7C96.3526 26.34 96.4792 27.0067 96.4792 27.7C96.4792 27.8467 96.4726 27.98 96.4592 28.1C96.4592 28.22 96.4526 28.3133 96.4392 28.38H87.7792C87.8192 28.9 87.9392 29.3733 88.1392 29.8C88.3392 30.2267 88.5992 30.5933 88.9192 30.9C89.2392 31.2067 89.5992 31.4467 89.9992 31.62C90.4126 31.7933 90.8459 31.88 91.2992 31.88C91.6192 31.88 91.9326 31.84 92.2392 31.76C92.5459 31.6667 92.8326 31.5467 93.0992 31.4C93.3659 31.2533 93.5992 31.0733 93.7992 30.86C94.0126 30.6467 94.1726 30.4067 94.2792 30.14L95.7992 30.56C95.6259 30.9467 95.3859 31.3 95.0792 31.62C94.7859 31.94 94.4392 32.22 94.0392 32.46C93.6526 32.6867 93.2192 32.8667 92.7392 33C92.2592 33.1333 91.7592 33.2 91.2392 33.2ZM94.8192 27.08C94.7792 26.5867 94.6526 26.1333 94.4392 25.72C94.2392 25.2933 93.9792 24.9333 93.6592 24.64C93.3526 24.3467 92.9926 24.12 92.5792 23.96C92.1659 23.7867 91.7259 23.7 91.2592 23.7C90.7926 23.7 90.3526 23.7867 89.9392 23.96C89.5259 24.12 89.1592 24.3533 88.8392 24.66C88.5326 24.9533 88.2792 25.3067 88.0792 25.72C87.8926 26.1333 87.7792 26.5867 87.7392 27.08H94.8192ZM104.096 33.2C103.229 33.2 102.462 32.9867 101.796 32.56C101.142 32.1333 100.622 31.5933 100.236 30.94V37.26H98.4756V22.56H100.036V24.52C100.449 23.88 100.982 23.3667 101.636 22.98C102.302 22.58 103.036 22.38 103.836 22.38C104.556 22.38 105.216 22.5267 105.816 22.82C106.416 23.1133 106.936 23.5133 107.376 24.02C107.816 24.5133 108.156 25.0867 108.396 25.74C108.649 26.3933 108.776 27.0733 108.776 27.78C108.776 28.5267 108.662 29.2333 108.436 29.9C108.209 30.5533 107.889 31.1267 107.476 31.62C107.062 32.1 106.569 32.4867 105.996 32.78C105.422 33.06 104.789 33.2 104.096 33.2ZM103.556 31.68C104.076 31.68 104.542 31.5733 104.956 31.36C105.382 31.1333 105.742 30.84 106.036 30.48C106.342 30.1067 106.576 29.6867 106.736 29.22C106.896 28.7533 106.976 28.2733 106.976 27.78C106.976 27.26 106.882 26.7667 106.696 26.3C106.509 25.82 106.256 25.4067 105.936 25.06C105.616 24.7 105.236 24.42 104.796 24.22C104.369 24.0067 103.902 23.9 103.396 23.9C103.076 23.9 102.742 23.9667 102.396 24.1C102.062 24.22 101.742 24.3867 101.436 24.6C101.142 24.8 100.882 25.0467 100.656 25.34C100.442 25.62 100.302 25.92 100.236 26.24V29.22C100.382 29.5667 100.569 29.8933 100.796 30.2C101.022 30.4933 101.282 30.7533 101.576 30.98C101.869 31.1933 102.182 31.3667 102.516 31.5C102.849 31.62 103.196 31.68 103.556 31.68ZM116.276 29.18L119.816 22.56H121.556V33H119.836V25.64L116.776 31.3H115.776L112.696 25.64V33H110.976V22.56H112.736L116.276 29.18ZM129.052 33.2C128.265 33.2 127.545 33.06 126.892 32.78C126.238 32.4867 125.678 32.0933 125.212 31.6C124.745 31.1067 124.378 30.5333 124.112 29.88C123.858 29.2133 123.732 28.5133 123.732 27.78C123.732 27.0467 123.858 26.3533 124.112 25.7C124.378 25.0467 124.745 24.4733 125.212 23.98C125.692 23.4867 126.258 23.1 126.912 22.82C127.565 22.5267 128.285 22.38 129.072 22.38C129.858 22.38 130.572 22.5267 131.212 22.82C131.865 23.1133 132.418 23.5067 132.872 24C133.325 24.48 133.672 25.0467 133.912 25.7C134.165 26.34 134.292 27.0067 134.292 27.7C134.292 27.8467 134.285 27.98 134.272 28.1C134.272 28.22 134.265 28.3133 134.252 28.38H125.592C125.632 28.9 125.752 29.3733 125.952 29.8C126.152 30.2267 126.412 30.5933 126.732 30.9C127.052 31.2067 127.412 31.4467 127.812 31.62C128.225 31.7933 128.658 31.88 129.112 31.88C129.432 31.88 129.745 31.84 130.052 31.76C130.358 31.6667 130.645 31.5467 130.912 31.4C131.178 31.2533 131.412 31.0733 131.612 30.86C131.825 30.6467 131.985 30.4067 132.092 30.14L133.612 30.56C133.438 30.9467 133.198 31.3 132.892 31.62C132.598 31.94 132.252 32.22 131.852 32.46C131.465 32.6867 131.032 32.8667 130.552 33C130.072 33.1333 129.572 33.2 129.052 33.2ZM132.632 27.08C132.592 26.5867 132.465 26.1333 132.252 25.72C132.052 25.2933 131.792 24.9333 131.472 24.64C131.165 24.3467 130.805 24.12 130.392 23.96C129.978 23.7867 129.538 23.7 129.072 23.7C128.605 23.7 128.165 23.7867 127.752 23.96C127.338 24.12 126.972 24.3533 126.652 24.66C126.345 24.9533 126.092 25.3067 125.892 25.72C125.705 26.1333 125.592 26.5867 125.552 27.08H132.632ZM141.908 33.2C141.041 33.2 140.275 32.9867 139.608 32.56C138.955 32.1333 138.435 31.5933 138.048 30.94V37.26H136.288V22.56H137.848V24.52C138.261 23.88 138.795 23.3667 139.448 22.98C140.115 22.58 140.848 22.38 141.648 22.38C142.368 22.38 143.028 22.5267 143.628 22.82C144.228 23.1133 144.748 23.5133 145.188 24.02C145.628 24.5133 145.968 25.0867 146.208 25.74C146.461 26.3933 146.588 27.0733 146.588 27.78C146.588 28.5267 146.475 29.2333 146.248 29.9C146.021 30.5533 145.701 31.1267 145.288 31.62C144.875 32.1 144.381 32.4867 143.808 32.78C143.235 33.06 142.601 33.2 141.908 33.2ZM141.368 31.68C141.888 31.68 142.355 31.5733 142.768 31.36C143.195 31.1333 143.555 30.84 143.848 30.48C144.155 30.1067 144.388 29.6867 144.548 29.22C144.708 28.7533 144.788 28.2733 144.788 27.78C144.788 27.26 144.695 26.7667 144.508 26.3C144.321 25.82 144.068 25.4067 143.748 25.06C143.428 24.7 143.048 24.42 142.608 24.22C142.181 24.0067 141.715 23.9 141.208 23.9C140.888 23.9 140.555 23.9667 140.208 24.1C139.875 24.22 139.555 24.3867 139.248 24.6C138.955 24.8 138.695 25.0467 138.468 25.34C138.255 25.62 138.115 25.92 138.048 26.24V29.22C138.195 29.5667 138.381 29.8933 138.608 30.2C138.835 30.4933 139.095 30.7533 139.388 30.98C139.681 31.1933 139.995 31.3667 140.328 31.5C140.661 31.62 141.008 31.68 141.368 31.68ZM148.048 27.76C148.048 27.0267 148.175 26.3333 148.428 25.68C148.681 25.0267 149.041 24.46 149.508 23.98C149.975 23.4867 150.528 23.1 151.168 22.82C151.821 22.5267 152.548 22.38 153.348 22.38C154.388 22.38 155.281 22.6133 156.028 23.08C156.788 23.5333 157.361 24.1467 157.748 24.92L156.028 25.46C155.761 24.9667 155.388 24.5867 154.908 24.32C154.428 24.04 153.895 23.9 153.308 23.9C152.828 23.9 152.375 24 151.948 24.2C151.521 24.3867 151.155 24.6533 150.848 25C150.541 25.3467 150.295 25.7533 150.108 26.22C149.935 26.6867 149.848 27.2 149.848 27.76C149.848 28.3067 149.941 28.82 150.128 29.3C150.315 29.78 150.561 30.2 150.868 30.56C151.188 30.9067 151.555 31.18 151.968 31.38C152.395 31.58 152.848 31.68 153.328 31.68C153.635 31.68 153.935 31.64 154.228 31.56C154.535 31.4667 154.808 31.3467 155.048 31.2C155.301 31.0533 155.521 30.8867 155.708 30.7C155.895 30.5 156.028 30.2867 156.108 30.06L157.828 30.58C157.668 30.9667 157.441 31.32 157.148 31.64C156.868 31.96 156.535 32.2333 156.148 32.46C155.761 32.6867 155.328 32.8667 154.848 33C154.381 33.1333 153.888 33.2 153.368 33.2C152.581 33.2 151.861 33.0533 151.208 32.76C150.555 32.4667 149.995 32.0733 149.528 31.58C149.061 31.0867 148.695 30.5133 148.428 29.86C148.175 29.1933 148.048 28.4933 148.048 27.76ZM166.082 22.56H168.042L163.942 27.64L168.322 33H166.382L162.802 28.42H161.582V33H159.862V22.56H161.582V27.1H162.602L166.082 22.56ZM171.582 30.52L177.262 22.56H178.682V33H176.962V25.2L171.382 33H169.862V22.56H171.582V30.52ZM182.26 22.56L185.12 26.4L185.28 26.72L185.46 26.4L188.3 22.56H190.16L186.26 27.8L190.18 33H188.32L185.46 29.18L185.28 28.88L185.12 29.18L182.26 33H180.4L184.32 27.8L180.42 22.56H182.26ZM205.353 33H203.633V24.08H198.653V33H196.933V22.56H205.353V33ZM213.9 33.2C213.034 33.2 212.267 32.9867 211.6 32.56C210.947 32.1333 210.427 31.5933 210.04 30.94V37.26H208.28V22.56H209.84V24.52C210.254 23.88 210.787 23.3667 211.44 22.98C212.107 22.58 212.84 22.38 213.64 22.38C214.36 22.38 215.02 22.5267 215.62 22.82C216.22 23.1133 216.74 23.5133 217.18 24.02C217.62 24.5133 217.96 25.0867 218.2 25.74C218.454 26.3933 218.58 27.0733 218.58 27.78C218.58 28.5267 218.467 29.2333 218.24 29.9C218.014 30.5533 217.694 31.1267 217.28 31.62C216.867 32.1 216.374 32.4867 215.8 32.78C215.227 33.06 214.594 33.2 213.9 33.2ZM213.36 31.68C213.88 31.68 214.347 31.5733 214.76 31.36C215.187 31.1333 215.547 30.84 215.84 30.48C216.147 30.1067 216.38 29.6867 216.54 29.22C216.7 28.7533 216.78 28.2733 216.78 27.78C216.78 27.26 216.687 26.7667 216.5 26.3C216.314 25.82 216.06 25.4067 215.74 25.06C215.42 24.7 215.04 24.42 214.6 24.22C214.174 24.0067 213.707 23.9 213.2 23.9C212.88 23.9 212.547 23.9667 212.2 24.1C211.867 24.22 211.547 24.3867 211.24 24.6C210.947 24.8 210.687 25.0467 210.46 25.34C210.247 25.62 210.107 25.92 210.04 26.24V29.22C210.187 29.5667 210.374 29.8933 210.6 30.2C210.827 30.4933 211.087 30.7533 211.38 30.98C211.674 31.1933 211.987 31.3667 212.32 31.5C212.654 31.62 213 31.68 213.36 31.68ZM225.3 33.2C224.514 33.2 223.794 33.0533 223.14 32.76C222.5 32.4667 221.947 32.0733 221.48 31.58C221.027 31.0867 220.674 30.5133 220.42 29.86C220.167 29.2067 220.04 28.52 220.04 27.8C220.04 27.0667 220.167 26.3733 220.42 25.72C220.687 25.0667 221.047 24.4933 221.5 24C221.967 23.5067 222.52 23.1133 223.16 22.82C223.814 22.5267 224.527 22.38 225.3 22.38C226.074 22.38 226.787 22.5267 227.44 22.82C228.094 23.1133 228.647 23.5067 229.1 24C229.567 24.4933 229.927 25.0667 230.18 25.72C230.447 26.3733 230.58 27.0667 230.58 27.8C230.58 28.52 230.454 29.2067 230.2 29.86C229.947 30.5133 229.587 31.0867 229.12 31.58C228.654 32.0733 228.094 32.4667 227.44 32.76C226.8 33.0533 226.087 33.2 225.3 33.2ZM221.84 27.82C221.84 28.3667 221.927 28.8733 222.1 29.34C222.287 29.8067 222.534 30.2133 222.84 30.56C223.16 30.9067 223.527 31.18 223.94 31.38C224.367 31.58 224.82 31.68 225.3 31.68C225.78 31.68 226.227 31.58 226.64 31.38C227.067 31.18 227.44 30.9067 227.76 30.56C228.08 30.2 228.327 29.7867 228.5 29.32C228.687 28.84 228.78 28.3267 228.78 27.78C228.78 27.2467 228.687 26.7467 228.5 26.28C228.327 25.8 228.08 25.3867 227.76 25.04C227.44 24.68 227.067 24.4 226.64 24.2C226.227 24 225.78 23.9 225.3 23.9C224.82 23.9 224.367 24.0067 223.94 24.22C223.527 24.42 223.16 24.7 222.84 25.06C222.534 25.4067 222.287 25.82 222.1 26.3C221.927 26.7667 221.84 27.2733 221.84 27.82ZM231.321 31.48H231.921C232.241 31.4 232.508 31.2533 232.721 31.04C232.948 30.8267 233.141 30.5 233.301 30.06C233.461 29.6067 233.601 29.0133 233.721 28.28C233.841 27.5333 233.961 26.6 234.081 25.48L234.401 22.56H240.901V31.48H242.141V36.28H240.621V33H232.781V36.28H231.321V31.48ZM239.181 31.48V23.94H236.021L235.721 26.2C235.534 27.64 235.321 28.78 235.081 29.62C234.854 30.4467 234.574 31.0667 234.241 31.48H239.181ZM243.904 35.38C244.131 35.58 244.351 35.72 244.564 35.8C244.791 35.88 245.024 35.92 245.264 35.92C245.611 35.92 245.937 35.7067 246.244 35.28C246.551 34.8533 246.857 34.0933 247.164 33L242.744 22.56H244.564L248.124 31.42L251.364 22.56H253.044L248.484 34.44C248.257 35.0267 248.031 35.5133 247.804 35.9C247.591 36.2867 247.357 36.5933 247.104 36.82C246.864 37.06 246.604 37.2267 246.324 37.32C246.044 37.4133 245.737 37.46 245.404 37.46C245.057 37.46 244.764 37.42 244.524 37.34C244.297 37.26 244.091 37.12 243.904 36.92V35.38ZM261.082 22.56H263.042L258.942 27.64L263.322 33H261.382L257.802 28.42H256.582V33H254.862V22.56H256.582V27.1H257.602L261.082 22.56ZM269.042 33H267.322V24.08H263.822V22.56H272.542V24.08H269.042V33ZM278.738 33.2C277.951 33.2 277.231 33.0533 276.578 32.76C275.938 32.4667 275.384 32.0733 274.918 31.58C274.464 31.0867 274.111 30.5133 273.858 29.86C273.604 29.2067 273.478 28.52 273.478 27.8C273.478 27.0667 273.604 26.3733 273.858 25.72C274.124 25.0667 274.484 24.4933 274.938 24C275.404 23.5067 275.958 23.1133 276.598 22.82C277.251 22.5267 277.964 22.38 278.738 22.38C279.511 22.38 280.224 22.5267 280.878 22.82C281.531 23.1133 282.084 23.5067 282.538 24C283.004 24.4933 283.364 25.0667 283.618 25.72C283.884 26.3733 284.018 27.0667 284.018 27.8C284.018 28.52 283.891 29.2067 283.638 29.86C283.384 30.5133 283.024 31.0867 282.558 31.58C282.091 32.0733 281.531 32.4667 280.878 32.76C280.238 33.0533 279.524 33.2 278.738 33.2ZM275.278 27.82C275.278 28.3667 275.364 28.8733 275.538 29.34C275.724 29.8067 275.971 30.2133 276.278 30.56C276.598 30.9067 276.964 31.18 277.378 31.38C277.804 31.58 278.258 31.68 278.738 31.68C279.218 31.68 279.664 31.58 280.078 31.38C280.504 31.18 280.878 30.9067 281.198 30.56C281.518 30.2 281.764 29.7867 281.938 29.32C282.124 28.84 282.218 28.3267 282.218 27.78C282.218 27.2467 282.124 26.7467 281.938 26.28C281.764 25.8 281.518 25.3867 281.198 25.04C280.878 24.68 280.504 24.4 280.078 24.2C279.664 24 279.218 23.9 278.738 23.9C278.258 23.9 277.804 24.0067 277.378 24.22C276.964 24.42 276.598 24.7 276.278 25.06C275.971 25.4067 275.724 25.82 275.538 26.3C275.364 26.7667 275.278 27.2733 275.278 27.82ZM291.49 22.56C291.864 22.56 292.21 22.6267 292.53 22.76C292.85 22.88 293.13 23.0533 293.37 23.28C293.61 23.5067 293.797 23.78 293.93 24.1C294.064 24.4067 294.13 24.7467 294.13 25.12C294.13 25.3467 294.104 25.58 294.05 25.82C293.997 26.0467 293.91 26.2733 293.79 26.5C293.684 26.7133 293.537 26.9133 293.35 27.1C293.164 27.2867 292.937 27.4333 292.67 27.54C293.244 27.7 293.697 28 294.03 28.44C294.364 28.8667 294.53 29.4067 294.53 30.06C294.53 30.5 294.45 30.9067 294.29 31.28C294.13 31.64 293.904 31.9467 293.61 32.2C293.33 32.4533 292.99 32.6533 292.59 32.8C292.204 32.9333 291.77 33 291.29 33H286.23V22.56H291.49ZM290.79 27.02C291.297 27.02 291.69 26.88 291.97 26.6C292.264 26.3067 292.41 25.9067 292.41 25.4C292.41 24.9733 292.297 24.6133 292.07 24.32C291.844 24.0133 291.464 23.86 290.93 23.86H287.95V27.02H290.79ZM291.09 31.7C291.624 31.7 292.044 31.5333 292.35 31.2C292.67 30.8533 292.83 30.4467 292.83 29.98C292.83 29.54 292.684 29.1533 292.39 28.82C292.097 28.4867 291.677 28.32 291.13 28.32H287.95V31.7H291.09Z" fill="white"/>
<path d="M45.5405 57.19V65H44.9795V61.26H40.0515V65H39.4905V57.19H40.0515V60.754H44.9795V57.19H45.5405ZM48.7792 65.11C48.5152 65.11 48.2695 65.066 48.0422 64.978C47.8149 64.8827 47.6132 64.758 47.4372 64.604C47.2685 64.4427 47.1365 64.2557 47.0412 64.043C46.9459 63.823 46.8982 63.5883 46.8982 63.339C46.8982 63.0897 46.9569 62.8623 47.0742 62.657C47.1915 62.4517 47.3529 62.2757 47.5582 62.129C47.7709 61.975 48.0239 61.8577 48.3172 61.777C48.6105 61.689 48.9332 61.645 49.2852 61.645C49.5932 61.645 49.9012 61.6743 50.2092 61.733C50.5245 61.7843 50.8069 61.8577 51.0562 61.953V61.392C51.0562 60.8493 50.9022 60.4203 50.5942 60.105C50.2862 59.7823 49.8682 59.621 49.3402 59.621C49.0615 59.621 48.7645 59.6797 48.4492 59.797C48.1412 59.9143 47.8259 60.083 47.5032 60.303L47.2942 59.929C48.0275 59.4303 48.7242 59.181 49.3842 59.181C50.0735 59.181 50.6162 59.3827 51.0122 59.786C51.4082 60.182 51.6062 60.732 51.6062 61.436V64.23C51.6062 64.4133 51.6869 64.505 51.8482 64.505V65C51.8115 65.0073 51.7712 65.011 51.7272 65.011C51.6905 65.0183 51.6575 65.022 51.6282 65.022C51.4815 65.022 51.3642 64.9743 51.2762 64.879C51.1882 64.7763 51.1369 64.6553 51.1222 64.516V64.043C50.8582 64.3877 50.5209 64.6517 50.1102 64.835C49.6995 65.0183 49.2559 65.11 48.7792 65.11ZM48.8892 64.67C49.3145 64.67 49.7032 64.5893 50.0552 64.428C50.4145 64.2667 50.6895 64.054 50.8802 63.79C50.9975 63.636 51.0562 63.4893 51.0562 63.35V62.338C50.7922 62.2353 50.5172 62.1583 50.2312 62.107C49.9452 62.0557 49.6482 62.03 49.3402 62.03C49.0542 62.03 48.7939 62.063 48.5592 62.129C48.3245 62.1877 48.1229 62.272 47.9542 62.382C47.7855 62.492 47.6535 62.6277 47.5582 62.789C47.4702 62.943 47.4262 63.1153 47.4262 63.306C47.4262 63.4967 47.4629 63.6763 47.5362 63.845C47.6095 64.0137 47.7122 64.1603 47.8442 64.285C47.9762 64.4023 48.1302 64.4977 48.3062 64.571C48.4895 64.637 48.6839 64.67 48.8892 64.67ZM53.3011 65V59.28H53.8401V64.516H56.2711V59.28H56.8211V64.516H59.2631V59.28H59.8021V65H53.3011ZM67.1156 59.28C67.3209 59.28 67.5079 59.3203 67.6766 59.401C67.8452 59.4743 67.9882 59.577 68.1056 59.709C68.2302 59.8337 68.3256 59.984 68.3916 60.16C68.4576 60.3287 68.4906 60.5047 68.4906 60.688C68.4906 60.9593 68.4209 61.2233 68.2816 61.48C68.1496 61.7293 67.9479 61.9163 67.6766 62.041C67.9992 62.129 68.2522 62.3013 68.4356 62.558C68.6262 62.8073 68.7216 63.108 68.7216 63.46C68.7216 63.68 68.6812 63.8853 68.6006 64.076C68.5199 64.2593 68.4062 64.4207 68.2596 64.56C68.1202 64.6993 67.9516 64.8093 67.7536 64.89C67.5556 64.9633 67.3429 65 67.1156 65H64.3766V59.28H67.1156ZM66.8956 61.887C67.0496 61.887 67.1926 61.8577 67.3246 61.799C67.4566 61.7403 67.5666 61.6597 67.6546 61.557C67.7499 61.4543 67.8232 61.337 67.8746 61.205C67.9259 61.0657 67.9516 60.919 67.9516 60.765C67.9516 60.479 67.8636 60.2333 67.6876 60.028C67.5189 59.8153 67.2769 59.709 66.9616 59.709H64.9156V61.887H66.8956ZM67.0716 64.571C67.2329 64.571 67.3832 64.5417 67.5226 64.483C67.6619 64.417 67.7792 64.3327 67.8746 64.23C67.9772 64.12 68.0542 63.9953 68.1056 63.856C68.1642 63.7167 68.1936 63.5737 68.1936 63.427C68.1936 63.2803 68.1679 63.141 68.1166 63.009C68.0652 62.877 67.9919 62.7597 67.8966 62.657C67.8012 62.5543 67.6839 62.4737 67.5446 62.415C67.4126 62.349 67.2659 62.316 67.1046 62.316H64.9156V64.571H67.0716ZM70.0697 59.28H70.6087V61.37H71.9947C72.552 61.37 73.003 61.5277 73.3477 61.843C73.6997 62.1583 73.8757 62.602 73.8757 63.174C73.8757 63.4527 73.828 63.7057 73.7327 63.933C73.6447 64.153 73.5164 64.3437 73.3477 64.505C73.179 64.6663 72.9774 64.791 72.7427 64.879C72.5154 64.9597 72.266 65 71.9947 65H70.0697V59.28ZM74.7227 59.28H75.2617V65H74.7227V59.28ZM71.9947 64.527C72.4494 64.527 72.783 64.3987 72.9957 64.142C73.2157 63.878 73.3257 63.5553 73.3257 63.174C73.3257 62.7927 73.2194 62.4773 73.0067 62.228C72.794 61.9713 72.4567 61.843 71.9947 61.843H70.6087V64.527H71.9947ZM79.8144 57.718C79.1031 57.8793 78.5347 58.2093 78.1094 58.708C77.6914 59.1993 77.4384 59.9033 77.3504 60.82C77.5557 60.4313 77.8307 60.127 78.1754 59.907C78.5201 59.687 78.9417 59.577 79.4404 59.577C79.8217 59.577 80.1627 59.643 80.4634 59.775C80.7714 59.907 81.0317 60.094 81.2444 60.336C81.4571 60.578 81.6221 60.8713 81.7394 61.216C81.8567 61.5533 81.9154 61.931 81.9154 62.349C81.9154 62.7523 81.8531 63.1227 81.7284 63.46C81.6111 63.7973 81.4387 64.0907 81.2114 64.34C80.9914 64.582 80.7164 64.7727 80.3864 64.912C80.0637 65.044 79.6934 65.11 79.2754 65.11C78.8647 65.11 78.5054 65.0367 78.1974 64.89C77.8894 64.736 77.6291 64.5197 77.4164 64.241C77.2037 63.9623 77.0424 63.625 76.9324 63.229C76.8297 62.8257 76.7784 62.3747 76.7784 61.876C76.7784 61.1427 76.8481 60.5083 76.9874 59.973C77.1341 59.4303 77.3394 58.972 77.6034 58.598C77.8674 58.224 78.1827 57.927 78.5494 57.707C78.9234 57.4797 79.3414 57.3147 79.8034 57.212L81.4204 56.849L81.5304 57.322L79.8144 57.718ZM77.3504 62.327C77.3504 62.657 77.3944 62.9613 77.4824 63.24C77.5704 63.5187 77.6987 63.7643 77.8674 63.977C78.0434 64.1823 78.2524 64.3437 78.4944 64.461C78.7437 64.5783 79.0261 64.637 79.3414 64.637C79.6567 64.637 79.9391 64.5783 80.1884 64.461C80.4377 64.3437 80.6504 64.1823 80.8264 63.977C81.0024 63.7717 81.1344 63.5297 81.2224 63.251C81.3177 62.9723 81.3654 62.6717 81.3654 62.349C81.3654 61.6377 81.1857 61.084 80.8264 60.688C80.4744 60.292 79.9757 60.094 79.3304 60.094C79.0444 60.094 78.7804 60.1453 78.5384 60.248C78.2964 60.3433 78.0874 60.4863 77.9114 60.677C77.7354 60.8677 77.5961 61.1023 77.4934 61.381C77.3981 61.6597 77.3504 61.975 77.3504 62.327ZM85.6803 65.11C85.277 65.11 84.903 65.033 84.5583 64.879C84.221 64.7177 83.9276 64.5013 83.6783 64.23C83.429 63.9587 83.2346 63.6433 83.0953 63.284C82.956 62.9247 82.8863 62.547 82.8863 62.151C82.8863 61.7477 82.956 61.3663 83.0953 61.007C83.242 60.6477 83.44 60.3323 83.6893 60.061C83.9386 59.7897 84.232 59.577 84.5693 59.423C84.914 59.2617 85.2843 59.181 85.6803 59.181C86.0763 59.181 86.443 59.2617 86.7803 59.423C87.1177 59.577 87.411 59.7897 87.6603 60.061C87.917 60.3323 88.115 60.6477 88.2543 61.007C88.401 61.3663 88.4743 61.7477 88.4743 62.151C88.4743 62.547 88.401 62.9247 88.2543 63.284C88.115 63.6433 87.9207 63.9587 87.6713 64.23C87.422 64.5013 87.125 64.7177 86.7803 64.879C86.443 65.033 86.0763 65.11 85.6803 65.11ZM83.4363 62.173C83.4363 62.5103 83.495 62.8293 83.6123 63.13C83.7296 63.4233 83.8873 63.68 84.0853 63.9C84.2906 64.12 84.529 64.296 84.8003 64.428C85.0716 64.5527 85.3613 64.615 85.6693 64.615C85.9773 64.615 86.267 64.5527 86.5383 64.428C86.8096 64.296 87.048 64.1163 87.2533 63.889C87.4586 63.6617 87.62 63.4013 87.7373 63.108C87.8546 62.8073 87.9133 62.4847 87.9133 62.14C87.9133 61.8027 87.8546 61.4873 87.7373 61.194C87.62 60.8933 87.4586 60.633 87.2533 60.413C87.048 60.1857 86.8096 60.006 86.5383 59.874C86.2743 59.742 85.9883 59.676 85.6803 59.676C85.3723 59.676 85.0826 59.742 84.8113 59.874C84.54 60.006 84.3016 60.1857 84.0963 60.413C83.8983 60.6403 83.737 60.908 83.6123 61.216C83.495 61.5167 83.4363 61.8357 83.4363 62.173ZM92.5971 65.11C92.1057 65.11 91.6657 64.9817 91.2771 64.725C90.8957 64.461 90.5877 64.142 90.3531 63.768V67.343H89.8031V59.28H90.3091V60.424C90.5437 60.0573 90.8517 59.7603 91.2331 59.533C91.6217 59.2983 92.0361 59.181 92.4761 59.181C92.8721 59.181 93.2387 59.2653 93.5761 59.434C93.9134 59.6027 94.2031 59.8263 94.4451 60.105C94.6871 60.3763 94.8741 60.6917 95.0061 61.051C95.1454 61.4103 95.2151 61.777 95.2151 62.151C95.2151 62.547 95.1527 62.9247 95.0281 63.284C94.9034 63.6433 94.7237 63.9587 94.4891 64.23C94.2617 64.5013 93.9867 64.7177 93.6641 64.879C93.3414 65.033 92.9857 65.11 92.5971 65.11ZM92.4651 64.615C92.7951 64.615 93.0957 64.5453 93.3671 64.406C93.6384 64.2667 93.8694 64.0833 94.0601 63.856C94.2507 63.6213 94.3974 63.3573 94.5001 63.064C94.6027 62.7633 94.6541 62.459 94.6541 62.151C94.6541 61.821 94.5954 61.5093 94.4781 61.216C94.3607 60.9153 94.1957 60.6513 93.9831 60.424C93.7777 60.1967 93.5357 60.017 93.2571 59.885C92.9784 59.7457 92.6814 59.676 92.3661 59.676C92.1681 59.676 91.9554 59.72 91.7281 59.808C91.5081 59.8887 91.2991 60.0023 91.1011 60.149C90.9031 60.2883 90.7344 60.4497 90.5951 60.633C90.4557 60.8163 90.3751 61.0107 90.3531 61.216V63.097C90.4484 63.3097 90.5694 63.5077 90.7161 63.691C90.8627 63.8743 91.0277 64.0357 91.2111 64.175C91.3944 64.3143 91.5924 64.4243 91.8051 64.505C92.0177 64.5783 92.2377 64.615 92.4651 64.615ZM99.2424 62.261V61.755H102.41V62.261H99.2424ZM106.433 62.118C106.433 61.7147 106.503 61.3333 106.642 60.974C106.782 60.6147 106.976 60.303 107.225 60.039C107.475 59.775 107.772 59.566 108.116 59.412C108.461 59.258 108.839 59.181 109.249 59.181C109.77 59.181 110.228 59.2983 110.624 59.533C111.02 59.7677 111.317 60.094 111.515 60.512L110.976 60.688C110.808 60.3727 110.566 60.127 110.25 59.951C109.942 59.7677 109.601 59.676 109.227 59.676C108.912 59.676 108.619 59.7383 108.347 59.863C108.076 59.9877 107.838 60.16 107.632 60.38C107.434 60.6 107.277 60.8603 107.159 61.161C107.042 61.4543 106.983 61.7733 106.983 62.118C106.983 62.4627 107.042 62.789 107.159 63.097C107.284 63.3977 107.445 63.6617 107.643 63.889C107.849 64.109 108.087 64.285 108.358 64.417C108.637 64.549 108.93 64.615 109.238 64.615C109.436 64.615 109.631 64.5857 109.821 64.527C110.019 64.4683 110.199 64.3913 110.36 64.296C110.529 64.2007 110.672 64.0907 110.789 63.966C110.914 63.834 110.998 63.6983 111.042 63.559L111.581 63.713C111.508 63.911 111.394 64.098 111.24 64.274C111.094 64.4427 110.918 64.5893 110.712 64.714C110.507 64.8387 110.28 64.934 110.03 65C109.781 65.0733 109.524 65.11 109.26 65.11C108.857 65.11 108.483 65.033 108.138 64.879C107.794 64.7177 107.493 64.5013 107.236 64.23C106.987 63.9513 106.789 63.6323 106.642 63.273C106.503 62.9137 106.433 62.5287 106.433 62.118ZM114.231 65.11C113.967 65.11 113.722 65.066 113.494 64.978C113.267 64.8827 113.065 64.758 112.889 64.604C112.721 64.4427 112.589 64.2557 112.493 64.043C112.398 63.823 112.35 63.5883 112.35 63.339C112.35 63.0897 112.409 62.8623 112.526 62.657C112.644 62.4517 112.805 62.2757 113.01 62.129C113.223 61.975 113.476 61.8577 113.769 61.777C114.063 61.689 114.385 61.645 114.737 61.645C115.045 61.645 115.353 61.6743 115.661 61.733C115.977 61.7843 116.259 61.8577 116.508 61.953V61.392C116.508 60.8493 116.354 60.4203 116.046 60.105C115.738 59.7823 115.32 59.621 114.792 59.621C114.514 59.621 114.217 59.6797 113.901 59.797C113.593 59.9143 113.278 60.083 112.955 60.303L112.746 59.929C113.48 59.4303 114.176 59.181 114.836 59.181C115.526 59.181 116.068 59.3827 116.464 59.786C116.86 60.182 117.058 60.732 117.058 61.436V64.23C117.058 64.4133 117.139 64.505 117.3 64.505V65C117.264 65.0073 117.223 65.011 117.179 65.011C117.143 65.0183 117.11 65.022 117.08 65.022C116.934 65.022 116.816 64.9743 116.728 64.879C116.64 64.7763 116.589 64.6553 116.574 64.516V64.043C116.31 64.3877 115.973 64.6517 115.562 64.835C115.152 65.0183 114.708 65.11 114.231 65.11ZM114.341 64.67C114.767 64.67 115.155 64.5893 115.507 64.428C115.867 64.2667 116.142 64.054 116.332 63.79C116.45 63.636 116.508 63.4893 116.508 63.35V62.338C116.244 62.2353 115.969 62.1583 115.683 62.107C115.397 62.0557 115.1 62.03 114.792 62.03C114.506 62.03 114.246 62.063 114.011 62.129C113.777 62.1877 113.575 62.272 113.406 62.382C113.238 62.492 113.106 62.6277 113.01 62.789C112.922 62.943 112.878 63.1153 112.878 63.306C112.878 63.4967 112.915 63.6763 112.988 63.845C113.062 64.0137 113.164 64.1603 113.296 64.285C113.428 64.4023 113.582 64.4977 113.758 64.571C113.942 64.637 114.136 64.67 114.341 64.67ZM121.613 63.339L123.945 59.28H124.473V65H123.934V60.281L121.789 64.021H121.448L119.292 60.281V65H118.753V59.28H119.292L121.613 63.339ZM126.208 59.28H126.747V61.37H128.133C128.691 61.37 129.142 61.5277 129.486 61.843C129.838 62.1583 130.014 62.602 130.014 63.174C130.014 63.4527 129.967 63.7057 129.871 63.933C129.783 64.153 129.655 64.3437 129.486 64.505C129.318 64.6663 129.116 64.791 128.881 64.879C128.654 64.9597 128.405 65 128.133 65H126.208V59.28ZM130.861 59.28H131.4V65H130.861V59.28ZM128.133 64.527C128.588 64.527 128.922 64.3987 129.134 64.142C129.354 63.878 129.464 63.5553 129.464 63.174C129.464 62.7927 129.358 62.4773 129.145 62.228C128.933 61.9713 128.595 61.843 128.133 61.843H126.747V64.527H128.133ZM135.557 65.11C135.154 65.11 134.78 65.033 134.435 64.879C134.09 64.7177 133.79 64.5013 133.533 64.23C133.284 63.9513 133.086 63.6323 132.939 63.273C132.8 62.9137 132.73 62.5287 132.73 62.118C132.73 61.7147 132.8 61.337 132.939 60.985C133.086 60.6257 133.284 60.314 133.533 60.05C133.782 59.7787 134.076 59.566 134.413 59.412C134.758 59.258 135.128 59.181 135.524 59.181C135.927 59.181 136.301 59.2617 136.646 59.423C136.991 59.577 137.288 59.7897 137.537 60.061C137.786 60.325 137.981 60.6367 138.12 60.996C138.259 61.348 138.329 61.722 138.329 62.118C138.329 62.1547 138.329 62.2023 138.329 62.261C138.329 62.3123 138.325 62.3453 138.318 62.36H133.302C133.324 62.69 133.401 62.998 133.533 63.284C133.665 63.5627 133.83 63.8047 134.028 64.01C134.233 64.2153 134.468 64.3767 134.732 64.494C134.996 64.6113 135.278 64.67 135.579 64.67C135.777 64.67 135.971 64.6443 136.162 64.593C136.353 64.5343 136.529 64.4573 136.69 64.362C136.859 64.2667 137.005 64.153 137.13 64.021C137.262 63.8817 137.365 63.7313 137.438 63.57L137.922 63.702C137.841 63.9073 137.72 64.098 137.559 64.274C137.405 64.4427 137.222 64.5893 137.009 64.714C136.804 64.8387 136.576 64.934 136.327 65C136.078 65.0733 135.821 65.11 135.557 65.11ZM137.801 61.92C137.779 61.5827 137.702 61.2747 137.57 60.996C137.445 60.7173 137.28 60.479 137.075 60.281C136.877 60.0757 136.646 59.918 136.382 59.808C136.118 59.6907 135.836 59.632 135.535 59.632C135.234 59.632 134.952 59.6907 134.688 59.808C134.424 59.918 134.189 60.0757 133.984 60.281C133.786 60.479 133.625 60.721 133.5 61.007C133.383 61.2857 133.313 61.59 133.291 61.92H137.801ZM141.968 62.118C141.968 61.7147 142.038 61.3333 142.177 60.974C142.317 60.6147 142.511 60.303 142.76 60.039C143.01 59.775 143.307 59.566 143.651 59.412C143.996 59.258 144.374 59.181 144.784 59.181C145.305 59.181 145.763 59.2983 146.159 59.533C146.555 59.7677 146.852 60.094 147.05 60.512L146.511 60.688C146.343 60.3727 146.101 60.127 145.785 59.951C145.477 59.7677 145.136 59.676 144.762 59.676C144.447 59.676 144.154 59.7383 143.882 59.863C143.611 59.9877 143.373 60.16 143.167 60.38C142.969 60.6 142.812 60.8603 142.694 61.161C142.577 61.4543 142.518 61.7733 142.518 62.118C142.518 62.4627 142.577 62.789 142.694 63.097C142.819 63.3977 142.98 63.6617 143.178 63.889C143.384 64.109 143.622 64.285 143.893 64.417C144.172 64.549 144.465 64.615 144.773 64.615C144.971 64.615 145.166 64.5857 145.356 64.527C145.554 64.4683 145.734 64.3913 145.895 64.296C146.064 64.2007 146.207 64.0907 146.324 63.966C146.449 63.834 146.533 63.6983 146.577 63.559L147.116 63.713C147.043 63.911 146.929 64.098 146.775 64.274C146.629 64.4427 146.453 64.5893 146.247 64.714C146.042 64.8387 145.815 64.934 145.565 65C145.316 65.0733 145.059 65.11 144.795 65.11C144.392 65.11 144.018 65.033 143.673 64.879C143.329 64.7177 143.028 64.5013 142.771 64.23C142.522 63.9513 142.324 63.6323 142.177 63.273C142.038 62.9137 141.968 62.5287 141.968 62.118ZM151.119 59.28C151.325 59.28 151.512 59.3203 151.68 59.401C151.849 59.4743 151.992 59.577 152.109 59.709C152.234 59.8337 152.329 59.984 152.395 60.16C152.461 60.3287 152.494 60.5047 152.494 60.688C152.494 60.9593 152.425 61.2233 152.285 61.48C152.153 61.7293 151.952 61.9163 151.68 62.041C152.003 62.129 152.256 62.3013 152.439 62.558C152.63 62.8073 152.725 63.108 152.725 63.46C152.725 63.68 152.685 63.8853 152.604 64.076C152.524 64.2593 152.41 64.4207 152.263 64.56C152.124 64.6993 151.955 64.8093 151.757 64.89C151.559 64.9633 151.347 65 151.119 65H148.38V59.28H151.119ZM150.899 61.887C151.053 61.887 151.196 61.8577 151.328 61.799C151.46 61.7403 151.57 61.6597 151.658 61.557C151.754 61.4543 151.827 61.337 151.878 61.205C151.93 61.0657 151.955 60.919 151.955 60.765C151.955 60.479 151.867 60.2333 151.691 60.028C151.523 59.8153 151.281 59.709 150.965 59.709H148.919V61.887H150.899ZM151.075 64.571C151.237 64.571 151.387 64.5417 151.526 64.483C151.666 64.417 151.783 64.3327 151.878 64.23C151.981 64.12 152.058 63.9953 152.109 63.856C152.168 63.7167 152.197 63.5737 152.197 63.427C152.197 63.2803 152.172 63.141 152.12 63.009C152.069 62.877 151.996 62.7597 151.9 62.657C151.805 62.5543 151.688 62.4737 151.548 62.415C151.416 62.349 151.27 62.316 151.108 62.316H148.919V64.571H151.075ZM156.494 65.11C156.09 65.11 155.716 65.033 155.372 64.879C155.027 64.7177 154.726 64.5013 154.47 64.23C154.22 63.9513 154.022 63.6323 153.876 63.273C153.736 62.9137 153.667 62.5287 153.667 62.118C153.667 61.7147 153.736 61.337 153.876 60.985C154.022 60.6257 154.22 60.314 154.47 60.05C154.719 59.7787 155.012 59.566 155.35 59.412C155.694 59.258 156.065 59.181 156.461 59.181C156.864 59.181 157.238 59.2617 157.583 59.423C157.927 59.577 158.224 59.7897 158.474 60.061C158.723 60.325 158.917 60.6367 159.057 60.996C159.196 61.348 159.266 61.722 159.266 62.118C159.266 62.1547 159.266 62.2023 159.266 62.261C159.266 62.3123 159.262 62.3453 159.255 62.36H154.239C154.261 62.69 154.338 62.998 154.47 63.284C154.602 63.5627 154.767 63.8047 154.965 64.01C155.17 64.2153 155.405 64.3767 155.669 64.494C155.933 64.6113 156.215 64.67 156.516 64.67C156.714 64.67 156.908 64.6443 157.099 64.593C157.289 64.5343 157.465 64.4573 157.627 64.362C157.795 64.2667 157.942 64.153 158.067 64.021C158.199 63.8817 158.301 63.7313 158.375 63.57L158.859 63.702C158.778 63.9073 158.657 64.098 158.496 64.274C158.342 64.4427 158.158 64.5893 157.946 64.714C157.74 64.8387 157.513 64.934 157.264 65C157.014 65.0733 156.758 65.11 156.494 65.11ZM158.738 61.92C158.716 61.5827 158.639 61.2747 158.507 60.996C158.382 60.7173 158.217 60.479 158.012 60.281C157.814 60.0757 157.583 59.918 157.319 59.808C157.055 59.6907 156.772 59.632 156.472 59.632C156.171 59.632 155.889 59.6907 155.625 59.808C155.361 59.918 155.126 60.0757 154.921 60.281C154.723 60.479 154.561 60.721 154.437 61.007C154.319 61.2857 154.25 61.59 154.228 61.92H158.738ZM160.511 59.269L162.073 61.876H163.338V59.28H163.888V61.876H165.153L166.704 59.269H167.331L165.615 62.03L167.551 65H166.924L165.23 62.305H163.888V65H163.338V62.305H161.996L160.291 65H159.664L161.6 62.03L159.884 59.269H160.511ZM169.115 64.23L172.8 59.28H173.262V65H172.712V60.138L169.093 65H168.576V59.28H169.115V64.23ZM177.419 65.11C177.016 65.11 176.642 65.033 176.297 64.879C175.953 64.7177 175.652 64.5013 175.395 64.23C175.146 63.9513 174.948 63.6323 174.801 63.273C174.662 62.9137 174.592 62.5287 174.592 62.118C174.592 61.7147 174.662 61.337 174.801 60.985C174.948 60.6257 175.146 60.314 175.395 60.05C175.645 59.7787 175.938 59.566 176.275 59.412C176.62 59.258 176.99 59.181 177.386 59.181C177.79 59.181 178.164 59.2617 178.508 59.423C178.853 59.577 179.15 59.7897 179.399 60.061C179.649 60.325 179.843 60.6367 179.982 60.996C180.122 61.348 180.191 61.722 180.191 62.118C180.191 62.1547 180.191 62.2023 180.191 62.261C180.191 62.3123 180.188 62.3453 180.18 62.36H175.164C175.186 62.69 175.263 62.998 175.395 63.284C175.527 63.5627 175.692 63.8047 175.89 64.01C176.096 64.2153 176.33 64.3767 176.594 64.494C176.858 64.6113 177.141 64.67 177.441 64.67C177.639 64.67 177.834 64.6443 178.024 64.593C178.215 64.5343 178.391 64.4573 178.552 64.362C178.721 64.2667 178.868 64.153 178.992 64.021C179.124 63.8817 179.227 63.7313 179.3 63.57L179.784 63.702C179.704 63.9073 179.583 64.098 179.421 64.274C179.267 64.4427 179.084 64.5893 178.871 64.714C178.666 64.8387 178.439 64.934 178.189 65C177.94 65.0733 177.683 65.11 177.419 65.11ZM179.663 61.92C179.641 61.5827 179.564 61.2747 179.432 60.996C179.308 60.7173 179.143 60.479 178.937 60.281C178.739 60.0757 178.508 59.918 178.244 59.808C177.98 59.6907 177.698 59.632 177.397 59.632C177.097 59.632 176.814 59.6907 176.55 59.808C176.286 59.918 176.052 60.0757 175.846 60.281C175.648 60.479 175.487 60.721 175.362 61.007C175.245 61.2857 175.175 61.59 175.153 61.92H179.663ZM44.7218 72.203C45.1838 72.2323 45.5981 72.324 45.9648 72.478C46.3314 72.632 46.6431 72.841 46.8998 73.105C47.1638 73.3617 47.3654 73.666 47.5048 74.018C47.6441 74.37 47.7138 74.755 47.7138 75.173C47.7138 75.6057 47.6404 75.9943 47.4938 76.339C47.3544 76.6837 47.1528 76.9843 46.8888 77.241C46.6248 77.4903 46.3094 77.6883 45.9428 77.835C45.5761 77.9817 45.1691 78.0697 44.7218 78.099V80.343H44.1718V78.099C43.7244 78.077 43.3174 77.9927 42.9508 77.846C42.5841 77.6993 42.2688 77.5013 42.0048 77.252C41.7408 76.9953 41.5354 76.6947 41.3888 76.35C41.2494 75.998 41.1798 75.6057 41.1798 75.173C41.1798 74.755 41.2494 74.37 41.3888 74.018C41.5281 73.666 41.7261 73.3617 41.9828 73.105C42.2468 72.841 42.5621 72.632 42.9288 72.478C43.2954 72.324 43.7098 72.2323 44.1718 72.203V69.97H44.7218V72.203ZM44.1718 72.742C43.7978 72.764 43.4604 72.8337 43.1598 72.951C42.8664 73.0683 42.6134 73.2297 42.4008 73.435C42.1881 73.6403 42.0231 73.8897 41.9058 74.183C41.7958 74.469 41.7408 74.788 41.7408 75.14C41.7408 75.5067 41.7994 75.8367 41.9168 76.13C42.0341 76.416 42.1991 76.6653 42.4118 76.878C42.6244 77.0833 42.8774 77.2483 43.1708 77.373C43.4714 77.4903 43.8051 77.56 44.1718 77.582V72.742ZM44.7218 77.582C45.0884 77.56 45.4184 77.4903 45.7118 77.373C46.0124 77.2483 46.2691 77.0833 46.4818 76.878C46.6944 76.6653 46.8594 76.416 46.9768 76.13C47.0941 75.8367 47.1528 75.5067 47.1528 75.14C47.1528 74.4287 46.9328 73.864 46.4928 73.446C46.0601 73.0207 45.4698 72.786 44.7218 72.742V77.582ZM51.8359 78.11C51.3445 78.11 50.9045 77.9817 50.5159 77.725C50.1345 77.461 49.8265 77.142 49.5919 76.768V80.343H49.0419V72.28H49.5479V73.424C49.7825 73.0573 50.0905 72.7603 50.4719 72.533C50.8605 72.2983 51.2749 72.181 51.7149 72.181C52.1109 72.181 52.4775 72.2653 52.8149 72.434C53.1522 72.6027 53.4419 72.8263 53.6839 73.105C53.9259 73.3763 54.1129 73.6917 54.2449 74.051C54.3842 74.4103 54.4539 74.777 54.4539 75.151C54.4539 75.547 54.3915 75.9247 54.2669 76.284C54.1422 76.6433 53.9625 76.9587 53.7279 77.23C53.5005 77.5013 53.2255 77.7177 52.9029 77.879C52.5802 78.033 52.2245 78.11 51.8359 78.11ZM51.7039 77.615C52.0339 77.615 52.3345 77.5453 52.6059 77.406C52.8772 77.2667 53.1082 77.0833 53.2989 76.856C53.4895 76.6213 53.6362 76.3573 53.7389 76.064C53.8415 75.7633 53.8929 75.459 53.8929 75.151C53.8929 74.821 53.8342 74.5093 53.7169 74.216C53.5995 73.9153 53.4345 73.6513 53.2219 73.424C53.0165 73.1967 52.7745 73.017 52.4959 72.885C52.2172 72.7457 51.9202 72.676 51.6049 72.676C51.4069 72.676 51.1942 72.72 50.9669 72.808C50.7469 72.8887 50.5379 73.0023 50.3399 73.149C50.1419 73.2883 49.9732 73.4497 49.8339 73.633C49.6945 73.8163 49.6139 74.0107 49.5919 74.216V76.097C49.6872 76.3097 49.8082 76.5077 49.9549 76.691C50.1015 76.8743 50.2665 77.0357 50.4499 77.175C50.6332 77.3143 50.8312 77.4243 51.0439 77.505C51.2565 77.5783 51.4765 77.615 51.7039 77.615ZM55.5946 79.716C55.7706 79.87 55.9759 79.947 56.2106 79.947C56.3133 79.947 56.4086 79.9177 56.4966 79.859C56.5846 79.8077 56.6763 79.7087 56.7716 79.562C56.8669 79.4153 56.9696 79.2173 57.0796 78.968C57.1896 78.7187 57.3179 78.396 57.4646 78L54.9126 72.28H55.4846L57.7616 77.461L59.8846 72.28H60.4236L57.5966 79.089C57.4939 79.3457 57.3913 79.5583 57.2886 79.727C57.1859 79.8957 57.0796 80.0313 56.9696 80.134C56.8669 80.244 56.7533 80.321 56.6286 80.365C56.5113 80.409 56.3829 80.431 56.2436 80.431C55.9503 80.431 55.7156 80.354 55.5396 80.2L55.5946 79.716ZM64.879 72.28H65.517L63.416 75.03L65.726 78H65.099L63.031 75.283H62.074V78H61.535V72.28H62.074V74.843H62.987L64.879 72.28ZM68.6823 78H68.1433V72.764H66.0533V72.28H70.7613V72.764H68.6823V78ZM71.8583 72.28H72.3973V74.37H73.7833C74.3406 74.37 74.7916 74.5277 75.1363 74.843C75.4883 75.1583 75.6643 75.602 75.6643 76.174C75.6643 76.4527 75.6166 76.7057 75.5213 76.933C75.4333 77.153 75.3049 77.3437 75.1363 77.505C74.9676 77.6663 74.7659 77.791 74.5313 77.879C74.3039 77.9597 74.0546 78 73.7833 78H71.8583V72.28ZM76.5113 72.28H77.0503V78H76.5113V72.28ZM73.7833 77.527C74.2379 77.527 74.5716 77.3987 74.7843 77.142C75.0043 76.878 75.1143 76.5553 75.1143 76.174C75.1143 75.7927 75.0079 75.4773 74.7953 75.228C74.5826 74.9713 74.2453 74.843 73.7833 74.843H72.3973V77.527H73.7833ZM82.1512 77.23L85.8362 72.28H86.2982V78H85.7482V73.138L82.1292 78H81.6122V72.28H82.1512V77.23ZM93.2482 78.11C92.8449 78.11 92.4709 78.033 92.1262 77.879C91.7889 77.7177 91.4955 77.5013 91.2462 77.23C90.9969 76.9587 90.8025 76.6433 90.6632 76.284C90.5239 75.9247 90.4542 75.547 90.4542 75.151C90.4542 74.7477 90.5239 74.3663 90.6632 74.007C90.8099 73.6477 91.0079 73.3323 91.2572 73.061C91.5065 72.7897 91.7999 72.577 92.1372 72.423C92.4819 72.2617 92.8522 72.181 93.2482 72.181C93.6442 72.181 94.0109 72.2617 94.3482 72.423C94.6855 72.577 94.9789 72.7897 95.2282 73.061C95.4849 73.3323 95.6829 73.6477 95.8222 74.007C95.9689 74.3663 96.0422 74.7477 96.0422 75.151C96.0422 75.547 95.9689 75.9247 95.8222 76.284C95.6829 76.6433 95.4885 76.9587 95.2392 77.23C94.9899 77.5013 94.6929 77.7177 94.3482 77.879C94.0109 78.033 93.6442 78.11 93.2482 78.11ZM91.0042 75.173C91.0042 75.5103 91.0629 75.8293 91.1802 76.13C91.2975 76.4233 91.4552 76.68 91.6532 76.9C91.8585 77.12 92.0969 77.296 92.3682 77.428C92.6395 77.5527 92.9292 77.615 93.2372 77.615C93.5452 77.615 93.8349 77.5527 94.1062 77.428C94.3775 77.296 94.6159 77.1163 94.8212 76.889C95.0265 76.6617 95.1879 76.4013 95.3052 76.108C95.4225 75.8073 95.4812 75.4847 95.4812 75.14C95.4812 74.8027 95.4225 74.4873 95.3052 74.194C95.1879 73.8933 95.0265 73.633 94.8212 73.413C94.6159 73.1857 94.3775 73.006 94.1062 72.874C93.8422 72.742 93.5562 72.676 93.2482 72.676C92.9402 72.676 92.6505 72.742 92.3792 72.874C92.1079 73.006 91.8695 73.1857 91.6642 73.413C91.4662 73.6403 91.3049 73.908 91.1802 74.216C91.0629 74.5167 91.0042 74.8357 91.0042 75.173ZM100.121 72.28C100.326 72.28 100.513 72.3203 100.682 72.401C100.851 72.4743 100.994 72.577 101.111 72.709C101.236 72.8337 101.331 72.984 101.397 73.16C101.463 73.3287 101.496 73.5047 101.496 73.688C101.496 73.9593 101.426 74.2233 101.287 74.48C101.155 74.7293 100.953 74.9163 100.682 75.041C101.005 75.129 101.258 75.3013 101.441 75.558C101.632 75.8073 101.727 76.108 101.727 76.46C101.727 76.68 101.687 76.8853 101.606 77.076C101.525 77.2593 101.412 77.4207 101.265 77.56C101.126 77.6993 100.957 77.8093 100.759 77.89C100.561 77.9633 100.348 78 100.121 78H97.382V72.28H100.121ZM99.901 74.887C100.055 74.887 100.198 74.8577 100.33 74.799C100.462 74.7403 100.572 74.6597 100.66 74.557C100.755 74.4543 100.829 74.337 100.88 74.205C100.931 74.0657 100.957 73.919 100.957 73.765C100.957 73.479 100.869 73.2333 100.693 73.028C100.524 72.8153 100.282 72.709 99.967 72.709H97.921V74.887H99.901ZM100.077 77.571C100.238 77.571 100.389 77.5417 100.528 77.483C100.667 77.417 100.785 77.3327 100.88 77.23C100.983 77.12 101.06 76.9953 101.111 76.856C101.17 76.7167 101.199 76.5737 101.199 76.427C101.199 76.2803 101.173 76.141 101.122 76.009C101.071 75.877 100.997 75.7597 100.902 75.657C100.807 75.5543 100.689 75.4737 100.55 75.415C100.418 75.349 100.271 75.316 100.11 75.316H97.921V77.571H100.077ZM105.462 78.11C105.059 78.11 104.685 78.033 104.34 77.879C104.003 77.7177 103.709 77.5013 103.46 77.23C103.211 76.9587 103.016 76.6433 102.877 76.284C102.738 75.9247 102.668 75.547 102.668 75.151C102.668 74.7477 102.738 74.3663 102.877 74.007C103.024 73.6477 103.222 73.3323 103.471 73.061C103.72 72.7897 104.014 72.577 104.351 72.423C104.696 72.2617 105.066 72.181 105.462 72.181C105.858 72.181 106.225 72.2617 106.562 72.423C106.899 72.577 107.193 72.7897 107.442 73.061C107.699 73.3323 107.897 73.6477 108.036 74.007C108.183 74.3663 108.256 74.7477 108.256 75.151C108.256 75.547 108.183 75.9247 108.036 76.284C107.897 76.6433 107.702 76.9587 107.453 77.23C107.204 77.5013 106.907 77.7177 106.562 77.879C106.225 78.033 105.858 78.11 105.462 78.11ZM103.218 75.173C103.218 75.5103 103.277 75.8293 103.394 76.13C103.511 76.4233 103.669 76.68 103.867 76.9C104.072 77.12 104.311 77.296 104.582 77.428C104.853 77.5527 105.143 77.615 105.451 77.615C105.759 77.615 106.049 77.5527 106.32 77.428C106.591 77.296 106.83 77.1163 107.035 76.889C107.24 76.6617 107.402 76.4013 107.519 76.108C107.636 75.8073 107.695 75.4847 107.695 75.14C107.695 74.8027 107.636 74.4873 107.519 74.194C107.402 73.8933 107.24 73.633 107.035 73.413C106.83 73.1857 106.591 73.006 106.32 72.874C106.056 72.742 105.77 72.676 105.462 72.676C105.154 72.676 104.864 72.742 104.593 72.874C104.322 73.006 104.083 73.1857 103.878 73.413C103.68 73.6403 103.519 73.908 103.394 74.216C103.277 74.5167 103.218 74.8357 103.218 75.173ZM109.585 72.28H110.124V77.516H112.555V72.28H113.105V77.516H115.547V72.28H116.086V77.516H116.966V79.749H116.471V78H109.585V72.28ZM118.621 77.23L122.306 72.28H122.768V78H122.218V73.138L118.599 78H118.082V72.28H118.621V77.23ZM130.081 72.28C130.286 72.28 130.473 72.3203 130.642 72.401C130.811 72.4743 130.954 72.577 131.071 72.709C131.196 72.8337 131.291 72.984 131.357 73.16C131.423 73.3287 131.456 73.5047 131.456 73.688C131.456 73.9593 131.386 74.2233 131.247 74.48C131.115 74.7293 130.913 74.9163 130.642 75.041C130.965 75.129 131.218 75.3013 131.401 75.558C131.592 75.8073 131.687 76.108 131.687 76.46C131.687 76.68 131.647 76.8853 131.566 77.076C131.485 77.2593 131.372 77.4207 131.225 77.56C131.086 77.6993 130.917 77.8093 130.719 77.89C130.521 77.9633 130.308 78 130.081 78H127.342V72.28H130.081ZM129.861 74.887C130.015 74.887 130.158 74.8577 130.29 74.799C130.422 74.7403 130.532 74.6597 130.62 74.557C130.715 74.4543 130.789 74.337 130.84 74.205C130.891 74.0657 130.917 73.919 130.917 73.765C130.917 73.479 130.829 73.2333 130.653 73.028C130.484 72.8153 130.242 72.709 129.927 72.709H127.881V74.887H129.861ZM130.037 77.571C130.198 77.571 130.349 77.5417 130.488 77.483C130.627 77.417 130.745 77.3327 130.84 77.23C130.943 77.12 131.02 76.9953 131.071 76.856C131.13 76.7167 131.159 76.5737 131.159 76.427C131.159 76.2803 131.133 76.141 131.082 76.009C131.031 75.877 130.957 75.7597 130.862 75.657C130.767 75.5543 130.649 75.4737 130.51 75.415C130.378 75.349 130.231 75.316 130.07 75.316H127.881V77.571H130.037ZM138.654 78.11C138.163 78.11 137.723 77.9817 137.334 77.725C136.953 77.461 136.645 77.142 136.41 76.768V80.343H135.86V72.28H136.366V73.424C136.601 73.0573 136.909 72.7603 137.29 72.533C137.679 72.2983 138.093 72.181 138.533 72.181C138.929 72.181 139.296 72.2653 139.633 72.434C139.971 72.6027 140.26 72.8263 140.502 73.105C140.744 73.3763 140.931 73.6917 141.063 74.051C141.203 74.4103 141.272 74.777 141.272 75.151C141.272 75.547 141.21 75.9247 141.085 76.284C140.961 76.6433 140.781 76.9587 140.546 77.23C140.319 77.5013 140.044 77.7177 139.721 77.879C139.399 78.033 139.043 78.11 138.654 78.11ZM138.522 77.615C138.852 77.615 139.153 77.5453 139.424 77.406C139.696 77.2667 139.927 77.0833 140.117 76.856C140.308 76.6213 140.455 76.3573 140.557 76.064C140.66 75.7633 140.711 75.459 140.711 75.151C140.711 74.821 140.653 74.5093 140.535 74.216C140.418 73.9153 140.253 73.6513 140.04 73.424C139.835 73.1967 139.593 73.017 139.314 72.885C139.036 72.7457 138.739 72.676 138.423 72.676C138.225 72.676 138.013 72.72 137.785 72.808C137.565 72.8887 137.356 73.0023 137.158 73.149C136.96 73.2883 136.792 73.4497 136.652 73.633C136.513 73.8163 136.432 74.0107 136.41 74.216V76.097C136.506 76.3097 136.627 76.5077 136.773 76.691C136.92 76.8743 137.085 77.0357 137.268 77.175C137.452 77.3143 137.65 77.4243 137.862 77.505C138.075 77.5783 138.295 77.615 138.522 77.615ZM145.026 78.11C144.623 78.11 144.249 78.033 143.904 77.879C143.56 77.7177 143.259 77.5013 143.002 77.23C142.753 76.9513 142.555 76.6323 142.408 76.273C142.269 75.9137 142.199 75.5287 142.199 75.118C142.199 74.7147 142.269 74.337 142.408 73.985C142.555 73.6257 142.753 73.314 143.002 73.05C143.252 72.7787 143.545 72.566 143.882 72.412C144.227 72.258 144.597 72.181 144.993 72.181C145.397 72.181 145.771 72.2617 146.115 72.423C146.46 72.577 146.757 72.7897 147.006 73.061C147.256 73.325 147.45 73.6367 147.589 73.996C147.729 74.348 147.798 74.722 147.798 75.118C147.798 75.1547 147.798 75.2023 147.798 75.261C147.798 75.3123 147.795 75.3453 147.787 75.36H142.771C142.793 75.69 142.87 75.998 143.002 76.284C143.134 76.5627 143.299 76.8047 143.497 77.01C143.703 77.2153 143.937 77.3767 144.201 77.494C144.465 77.6113 144.748 77.67 145.048 77.67C145.246 77.67 145.441 77.6443 145.631 77.593C145.822 77.5343 145.998 77.4573 146.159 77.362C146.328 77.2667 146.475 77.153 146.599 77.021C146.731 76.8817 146.834 76.7313 146.907 76.57L147.391 76.702C147.311 76.9073 147.19 77.098 147.028 77.274C146.874 77.4427 146.691 77.5893 146.478 77.714C146.273 77.8387 146.046 77.934 145.796 78C145.547 78.0733 145.29 78.11 145.026 78.11ZM147.27 74.92C147.248 74.5827 147.171 74.2747 147.039 73.996C146.915 73.7173 146.75 73.479 146.544 73.281C146.346 73.0757 146.115 72.918 145.851 72.808C145.587 72.6907 145.305 72.632 145.004 72.632C144.704 72.632 144.421 72.6907 144.157 72.808C143.893 72.918 143.659 73.0757 143.453 73.281C143.255 73.479 143.094 73.721 142.969 74.007C142.852 74.2857 142.782 74.59 142.76 74.92H147.27ZM152.374 72.709H149.558V78H149.019V72.28H152.374V72.709ZM154.027 77.23L157.712 72.28H158.174V78H157.624V73.138L154.005 78H153.488V72.28H154.027V77.23ZM162.299 78.11C161.896 78.11 161.522 78.033 161.177 77.879C160.84 77.7177 160.546 77.5013 160.297 77.23C160.048 76.9587 159.853 76.6433 159.714 76.284C159.575 75.9247 159.505 75.547 159.505 75.151C159.505 74.7477 159.575 74.3663 159.714 74.007C159.861 73.6477 160.059 73.3323 160.308 73.061C160.557 72.7897 160.851 72.577 161.188 72.423C161.533 72.2617 161.903 72.181 162.299 72.181C162.695 72.181 163.062 72.2617 163.399 72.423C163.736 72.577 164.03 72.7897 164.279 73.061C164.536 73.3323 164.734 73.6477 164.873 74.007C165.02 74.3663 165.093 74.7477 165.093 75.151C165.093 75.547 165.02 75.9247 164.873 76.284C164.734 76.6433 164.539 76.9587 164.29 77.23C164.041 77.5013 163.744 77.7177 163.399 77.879C163.062 78.033 162.695 78.11 162.299 78.11ZM160.055 75.173C160.055 75.5103 160.114 75.8293 160.231 76.13C160.348 76.4233 160.506 76.68 160.704 76.9C160.909 77.12 161.148 77.296 161.419 77.428C161.69 77.5527 161.98 77.615 162.288 77.615C162.596 77.615 162.886 77.5527 163.157 77.428C163.428 77.296 163.667 77.1163 163.872 76.889C164.077 76.6617 164.239 76.4013 164.356 76.108C164.473 75.8073 164.532 75.4847 164.532 75.14C164.532 74.8027 164.473 74.4873 164.356 74.194C164.239 73.8933 164.077 73.633 163.872 73.413C163.667 73.1857 163.428 73.006 163.157 72.874C162.893 72.742 162.607 72.676 162.299 72.676C161.991 72.676 161.701 72.742 161.43 72.874C161.159 73.006 160.92 73.1857 160.715 73.413C160.517 73.6403 160.356 73.908 160.231 74.216C160.114 74.5167 160.055 74.8357 160.055 75.173ZM166.961 74.832H170.459V72.28H170.998V78H170.459V75.305H166.961V78H166.422V72.28H166.961V74.832ZM175.158 78.11C174.755 78.11 174.381 78.033 174.036 77.879C173.691 77.7177 173.391 77.5013 173.134 77.23C172.885 76.9513 172.687 76.6323 172.54 76.273C172.401 75.9137 172.331 75.5287 172.331 75.118C172.331 74.7147 172.401 74.337 172.54 73.985C172.687 73.6257 172.885 73.314 173.134 73.05C173.383 72.7787 173.677 72.566 174.014 72.412C174.359 72.258 174.729 72.181 175.125 72.181C175.528 72.181 175.902 72.2617 176.247 72.423C176.592 72.577 176.889 72.7897 177.138 73.061C177.387 73.325 177.582 73.6367 177.721 73.996C177.86 74.348 177.93 74.722 177.93 75.118C177.93 75.1547 177.93 75.2023 177.93 75.261C177.93 75.3123 177.926 75.3453 177.919 75.36H172.903C172.925 75.69 173.002 75.998 173.134 76.284C173.266 76.5627 173.431 76.8047 173.629 77.01C173.834 77.2153 174.069 77.3767 174.333 77.494C174.597 77.6113 174.879 77.67 175.18 77.67C175.378 77.67 175.572 77.6443 175.763 77.593C175.954 77.5343 176.13 77.4573 176.291 77.362C176.46 77.2667 176.606 77.153 176.731 77.021C176.863 76.8817 176.966 76.7313 177.039 76.57L177.523 76.702C177.442 76.9073 177.321 77.098 177.16 77.274C177.006 77.4427 176.823 77.5893 176.61 77.714C176.405 77.8387 176.177 77.934 175.928 78C175.679 78.0733 175.422 78.11 175.158 78.11ZM177.402 74.92C177.38 74.5827 177.303 74.2747 177.171 73.996C177.046 73.7173 176.881 73.479 176.676 73.281C176.478 73.0757 176.247 72.918 175.983 72.808C175.719 72.6907 175.437 72.632 175.136 72.632C174.835 72.632 174.553 72.6907 174.289 72.808C174.025 72.918 173.79 73.0757 173.585 73.281C173.387 73.479 173.226 73.721 173.101 74.007C172.984 74.2857 172.914 74.59 172.892 74.92H177.402Z" fill="#EEEEEE"/>
<path d="M56.429 91.04C56.429 90.5707 56.5097 90.105 56.671 89.643C56.8397 89.1737 57.0817 88.7557 57.397 88.389C57.7197 88.015 58.112 87.7143 58.574 87.487C59.036 87.2597 59.5603 87.146 60.147 87.146C60.8437 87.146 61.4413 87.3037 61.94 87.619C62.4387 87.9343 62.809 88.345 63.051 88.851L62.27 89.357C62.1527 89.1077 62.0097 88.8987 61.841 88.73C61.6797 88.5613 61.5 88.4257 61.302 88.323C61.1113 88.2203 60.9133 88.147 60.708 88.103C60.5027 88.059 60.301 88.037 60.103 88.037C59.6703 88.037 59.2853 88.1287 58.948 88.312C58.618 88.488 58.3393 88.7227 58.112 89.016C57.8847 89.302 57.7123 89.6283 57.595 89.995C57.485 90.3543 57.43 90.7173 57.43 91.084C57.43 91.4947 57.496 91.887 57.628 92.261C57.7673 92.6277 57.958 92.954 58.2 93.24C58.442 93.526 58.728 93.7533 59.058 93.922C59.388 94.0907 59.7473 94.175 60.136 94.175C60.3413 94.175 60.5503 94.1493 60.763 94.098C60.983 94.0467 61.192 93.966 61.39 93.856C61.588 93.7387 61.7713 93.5957 61.94 93.427C62.116 93.251 62.259 93.042 62.369 92.8L63.194 93.251C63.0693 93.5443 62.8933 93.8047 62.666 94.032C62.446 94.252 62.193 94.439 61.907 94.593C61.6283 94.747 61.3313 94.8643 61.016 94.945C60.7007 95.0257 60.3927 95.066 60.092 95.066C59.5567 95.066 59.0653 94.9487 58.618 94.714C58.1707 94.4793 57.782 94.175 57.452 93.801C57.1293 93.4197 56.8763 92.9907 56.693 92.514C56.517 92.03 56.429 91.5387 56.429 91.04ZM66.4675 94.164H66.7975C66.9735 94.12 67.1202 94.0393 67.2375 93.922C67.3622 93.8047 67.4685 93.625 67.5565 93.383C67.6445 93.1337 67.7215 92.8073 67.7875 92.404C67.8535 91.9933 67.9195 91.48 67.9855 90.864L68.1615 89.258H71.7365V94.164H72.4185V96.804H71.5825V95H67.2705V96.804H66.4675V94.164ZM70.7905 94.164V90.017H69.0525L68.8875 91.26C68.7849 92.052 68.6675 92.679 68.5355 93.141C68.4109 93.5957 68.2569 93.9367 68.0735 94.164H70.7905ZM75.9824 95.11C75.5497 95.11 75.1537 95.0293 74.7944 94.868C74.4424 94.7067 74.138 94.4903 73.8814 94.219C73.632 93.9477 73.4377 93.6323 73.2984 93.273C73.159 92.9137 73.0894 92.536 73.0894 92.14C73.0894 91.7367 73.159 91.3553 73.2984 90.996C73.445 90.6367 73.643 90.3213 73.8924 90.05C74.149 89.7787 74.4534 89.5623 74.8054 89.401C75.1647 89.2397 75.557 89.159 75.9824 89.159C76.4077 89.159 76.8 89.2397 77.1594 89.401C77.5187 89.5623 77.823 89.7787 78.0724 90.05C78.329 90.3213 78.527 90.6367 78.6664 90.996C78.813 91.3553 78.8864 91.7367 78.8864 92.14C78.8864 92.536 78.8167 92.9137 78.6774 93.273C78.538 93.6323 78.34 93.9477 78.0834 94.219C77.8267 94.4903 77.5187 94.7067 77.1594 94.868C76.8074 95.0293 76.415 95.11 75.9824 95.11ZM74.0794 92.151C74.0794 92.4517 74.127 92.7303 74.2224 92.987C74.325 93.2437 74.4607 93.4673 74.6294 93.658C74.8054 93.8487 75.007 93.999 75.2344 94.109C75.469 94.219 75.7184 94.274 75.9824 94.274C76.2464 94.274 76.492 94.219 76.7194 94.109C76.954 93.999 77.1594 93.8487 77.3354 93.658C77.5114 93.46 77.647 93.2327 77.7424 92.976C77.845 92.712 77.8964 92.4297 77.8964 92.129C77.8964 91.8357 77.845 91.5607 77.7424 91.304C77.647 91.04 77.5114 90.8127 77.3354 90.622C77.1594 90.424 76.954 90.27 76.7194 90.16C76.492 90.05 76.2464 89.995 75.9824 89.995C75.7184 89.995 75.469 90.0537 75.2344 90.171C75.007 90.281 74.8054 90.435 74.6294 90.633C74.4607 90.8237 74.325 91.051 74.2224 91.315C74.127 91.5717 74.0794 91.8503 74.0794 92.151ZM79.6743 92.118C79.6743 91.7147 79.744 91.3333 79.8833 90.974C80.0227 90.6147 80.2207 90.303 80.4773 90.039C80.734 89.7677 81.0383 89.555 81.3903 89.401C81.7497 89.2397 82.1493 89.159 82.5893 89.159C83.1613 89.159 83.6527 89.2873 84.0633 89.544C84.4813 89.7933 84.7967 90.1307 85.0093 90.556L84.0633 90.853C83.9167 90.5817 83.7113 90.3727 83.4473 90.226C83.1833 90.072 82.89 89.995 82.5673 89.995C82.3033 89.995 82.054 90.05 81.8193 90.16C81.5847 90.2627 81.383 90.4093 81.2143 90.6C81.0457 90.7907 80.91 91.0143 80.8073 91.271C80.712 91.5277 80.6643 91.81 80.6643 92.118C80.6643 92.4187 80.7157 92.701 80.8183 92.965C80.921 93.229 81.0567 93.46 81.2253 93.658C81.4013 93.8487 81.603 93.999 81.8303 94.109C82.065 94.219 82.3143 94.274 82.5783 94.274C82.747 94.274 82.912 94.252 83.0733 94.208C83.242 94.1567 83.3923 94.0907 83.5243 94.01C83.6637 93.9293 83.7847 93.8377 83.8873 93.735C83.99 93.625 84.0633 93.5077 84.1073 93.383L85.0533 93.669C84.9653 93.8817 84.8407 94.076 84.6793 94.252C84.5253 94.428 84.342 94.5783 84.1293 94.703C83.9167 94.8277 83.6783 94.9267 83.4143 95C83.1577 95.0733 82.8863 95.11 82.6003 95.11C82.1677 95.11 81.7717 95.0293 81.4123 94.868C81.053 94.7067 80.745 94.4903 80.4883 94.219C80.2317 93.9477 80.03 93.6323 79.8833 93.273C79.744 92.9063 79.6743 92.5213 79.6743 92.118ZM88.4711 95H87.5251V90.094H85.6001V89.258H90.3961V90.094H88.4711V95ZM92.8771 95.11C92.6057 95.11 92.3527 95.066 92.1181 94.978C91.8834 94.8827 91.6781 94.7543 91.5021 94.593C91.3334 94.4317 91.1977 94.2447 91.0951 94.032C90.9997 93.812 90.9521 93.5737 90.9521 93.317C90.9521 93.053 91.0107 92.8147 91.1281 92.602C91.2454 92.382 91.4104 92.195 91.6231 92.041C91.8431 91.887 92.0997 91.766 92.3931 91.678C92.6937 91.59 93.0201 91.546 93.3721 91.546C93.6507 91.546 93.9331 91.5717 94.2191 91.623C94.5051 91.6743 94.7581 91.744 94.9781 91.832V91.37C94.9781 90.9007 94.8461 90.534 94.5821 90.27C94.3181 89.9987 93.9441 89.863 93.4601 89.863C92.8807 89.863 92.2721 90.0867 91.6341 90.534L91.3151 89.907C92.0557 89.4083 92.8001 89.159 93.5481 89.159C94.3034 89.159 94.8901 89.3607 95.3081 89.764C95.7334 90.1673 95.9461 90.7357 95.9461 91.469V93.812C95.9461 94.0393 96.0487 94.1567 96.2541 94.164V95C96.1514 95.0147 96.0671 95.0257 96.0011 95.033C95.9351 95.0403 95.8654 95.044 95.7921 95.044C95.6014 95.044 95.4474 94.989 95.3301 94.879C95.2201 94.7617 95.1541 94.6223 95.1321 94.461L95.1101 94.054C94.8534 94.3987 94.5271 94.6627 94.1311 94.846C93.7424 95.022 93.3244 95.11 92.8771 95.11ZM93.1301 94.384C93.4747 94.384 93.7937 94.3217 94.0871 94.197C94.3877 94.065 94.6151 93.8927 94.7691 93.68C94.9084 93.5407 94.9781 93.3977 94.9781 93.251V92.404C94.5087 92.2207 94.0211 92.129 93.5151 92.129C93.0311 92.129 92.6351 92.2317 92.3271 92.437C92.0264 92.6423 91.8761 92.91 91.8761 93.24C91.8761 93.4013 91.9054 93.5517 91.9641 93.691C92.0301 93.8303 92.1181 93.9513 92.2281 94.054C92.3454 94.1567 92.4811 94.2373 92.6351 94.296C92.7891 94.3547 92.9541 94.384 93.1301 94.384ZM100.442 89.258C100.647 89.258 100.838 89.2947 101.014 89.368C101.19 89.434 101.344 89.5293 101.476 89.654C101.608 89.7787 101.71 89.929 101.784 90.105C101.857 90.2737 101.894 90.4607 101.894 90.666C101.894 90.7907 101.879 90.919 101.85 91.051C101.82 91.1757 101.773 91.3003 101.707 91.425C101.648 91.5423 101.567 91.6523 101.465 91.755C101.362 91.8577 101.237 91.9383 101.091 91.997C101.406 92.085 101.655 92.25 101.839 92.492C102.022 92.7267 102.114 93.0237 102.114 93.383C102.114 93.625 102.07 93.8487 101.982 94.054C101.894 94.252 101.769 94.4207 101.608 94.56C101.454 94.6993 101.267 94.8093 101.047 94.89C100.834 94.9633 100.596 95 100.332 95H97.5486V89.258H100.442ZM100.057 91.711C100.335 91.711 100.552 91.634 100.706 91.48C100.867 91.3187 100.948 91.0987 100.948 90.82C100.948 90.5853 100.885 90.3873 100.761 90.226C100.636 90.0573 100.427 89.973 100.134 89.973H98.4946V91.711H100.057ZM100.222 94.285C100.515 94.285 100.746 94.1933 100.915 94.01C101.091 93.8193 101.179 93.5957 101.179 93.339C101.179 93.097 101.098 92.8843 100.937 92.701C100.775 92.5177 100.544 92.426 100.244 92.426H98.4946V94.285H100.222ZM106.748 89.258H107.826L105.571 92.052L107.98 95H106.913L104.944 92.481H104.273V95H103.327V89.258H104.273V91.755H104.834L106.748 89.258ZM111.013 95.11C110.58 95.11 110.184 95.0293 109.825 94.868C109.473 94.7067 109.168 94.4903 108.912 94.219C108.662 93.9477 108.468 93.6323 108.329 93.273C108.189 92.9137 108.12 92.536 108.12 92.14C108.12 91.7367 108.189 91.3553 108.329 90.996C108.475 90.6367 108.673 90.3213 108.923 90.05C109.179 89.7787 109.484 89.5623 109.836 89.401C110.195 89.2397 110.587 89.159 111.013 89.159C111.438 89.159 111.83 89.2397 112.19 89.401C112.549 89.5623 112.853 89.7787 113.103 90.05C113.359 90.3213 113.557 90.6367 113.697 90.996C113.843 91.3553 113.917 91.7367 113.917 92.14C113.917 92.536 113.847 92.9137 113.708 93.273C113.568 93.6323 113.37 93.9477 113.114 94.219C112.857 94.4903 112.549 94.7067 112.19 94.868C111.838 95.0293 111.445 95.11 111.013 95.11ZM109.11 92.151C109.11 92.4517 109.157 92.7303 109.253 92.987C109.355 93.2437 109.491 93.4673 109.66 93.658C109.836 93.8487 110.037 93.999 110.265 94.109C110.499 94.219 110.749 94.274 111.013 94.274C111.277 94.274 111.522 94.219 111.75 94.109C111.984 93.999 112.19 93.8487 112.366 93.658C112.542 93.46 112.677 93.2327 112.773 92.976C112.875 92.712 112.927 92.4297 112.927 92.129C112.927 91.8357 112.875 91.5607 112.773 91.304C112.677 91.04 112.542 90.8127 112.366 90.622C112.19 90.424 111.984 90.27 111.75 90.16C111.522 90.05 111.277 89.995 111.013 89.995C110.749 89.995 110.499 90.0537 110.265 90.171C110.037 90.281 109.836 90.435 109.66 90.633C109.491 90.8237 109.355 91.051 109.253 91.315C109.157 91.5717 109.11 91.8503 109.11 92.151ZM119.347 86.97C119.317 87.3807 119.152 87.6887 118.852 87.894C118.551 88.092 118.155 88.191 117.664 88.191C117.172 88.191 116.776 88.092 116.476 87.894C116.175 87.6887 116.01 87.3807 115.981 86.97H116.564C116.578 87.2707 116.681 87.4723 116.872 87.575C117.07 87.6703 117.334 87.718 117.664 87.718C117.994 87.718 118.254 87.6703 118.445 87.575C118.643 87.4723 118.749 87.2707 118.764 86.97H119.347ZM116.058 93.636L119.182 89.258H119.963V95H119.017V90.71L115.948 95H115.112V89.258H116.058V93.636ZM125.296 91.645H128.2V89.258H129.146V95H128.2V92.448H125.296V95H124.35V89.258H125.296V91.645ZM132.204 95.11C131.933 95.11 131.68 95.066 131.445 94.978C131.211 94.8827 131.005 94.7543 130.829 94.593C130.661 94.4317 130.525 94.2447 130.422 94.032C130.327 93.812 130.279 93.5737 130.279 93.317C130.279 93.053 130.338 92.8147 130.455 92.602C130.573 92.382 130.738 92.195 130.95 92.041C131.17 91.887 131.427 91.766 131.72 91.678C132.021 91.59 132.347 91.546 132.699 91.546C132.978 91.546 133.26 91.5717 133.546 91.623C133.832 91.6743 134.085 91.744 134.305 91.832V91.37C134.305 90.9007 134.173 90.534 133.909 90.27C133.645 89.9987 133.271 89.863 132.787 89.863C132.208 89.863 131.599 90.0867 130.961 90.534L130.642 89.907C131.383 89.4083 132.127 89.159 132.875 89.159C133.631 89.159 134.217 89.3607 134.635 89.764C135.061 90.1673 135.273 90.7357 135.273 91.469V93.812C135.273 94.0393 135.376 94.1567 135.581 94.164V95C135.479 95.0147 135.394 95.0257 135.328 95.033C135.262 95.0403 135.193 95.044 135.119 95.044C134.929 95.044 134.775 94.989 134.657 94.879C134.547 94.7617 134.481 94.6223 134.459 94.461L134.437 94.054C134.181 94.3987 133.854 94.6627 133.458 94.846C133.07 95.022 132.652 95.11 132.204 95.11ZM132.457 94.384C132.802 94.384 133.121 94.3217 133.414 94.197C133.715 94.065 133.942 93.8927 134.096 93.68C134.236 93.5407 134.305 93.3977 134.305 93.251V92.404C133.836 92.2207 133.348 92.129 132.842 92.129C132.358 92.129 131.962 92.2317 131.654 92.437C131.354 92.6423 131.203 92.91 131.203 93.24C131.203 93.4013 131.233 93.5517 131.291 93.691C131.357 93.8303 131.445 93.9513 131.555 94.054C131.673 94.1567 131.808 94.2373 131.962 94.296C132.116 94.3547 132.281 94.384 132.457 94.384ZM139.031 94.164H139.361C139.537 94.12 139.684 94.0393 139.801 93.922C139.926 93.8047 140.032 93.625 140.12 93.383C140.208 93.1337 140.285 92.8073 140.351 92.404C140.417 91.9933 140.483 91.48 140.549 90.864L140.725 89.258H144.3V94.164H144.982V96.804H144.146V95H139.834V96.804H139.031V94.164ZM143.354 94.164V90.017H141.616L141.451 91.26C141.348 92.052 141.231 92.679 141.099 93.141C140.974 93.5957 140.82 93.9367 140.637 94.164H143.354ZM148.546 95.11C148.113 95.11 147.717 95.0293 147.358 94.868C147.006 94.7067 146.702 94.4903 146.445 94.219C146.196 93.9477 146.001 93.6323 145.862 93.273C145.723 92.9137 145.653 92.536 145.653 92.14C145.653 91.7367 145.723 91.3553 145.862 90.996C146.009 90.6367 146.207 90.3213 146.456 90.05C146.713 89.7787 147.017 89.5623 147.369 89.401C147.728 89.2397 148.121 89.159 148.546 89.159C148.971 89.159 149.364 89.2397 149.723 89.401C150.082 89.5623 150.387 89.7787 150.636 90.05C150.893 90.3213 151.091 90.6367 151.23 90.996C151.377 91.3553 151.45 91.7367 151.45 92.14C151.45 92.536 151.38 92.9137 151.241 93.273C151.102 93.6323 150.904 93.9477 150.647 94.219C150.39 94.4903 150.082 94.7067 149.723 94.868C149.371 95.0293 148.979 95.11 148.546 95.11ZM146.643 92.151C146.643 92.4517 146.691 92.7303 146.786 92.987C146.889 93.2437 147.024 93.4673 147.193 93.658C147.369 93.8487 147.571 93.999 147.798 94.109C148.033 94.219 148.282 94.274 148.546 94.274C148.81 94.274 149.056 94.219 149.283 94.109C149.518 93.999 149.723 93.8487 149.899 93.658C150.075 93.46 150.211 93.2327 150.306 92.976C150.409 92.712 150.46 92.4297 150.46 92.129C150.46 91.8357 150.409 91.5607 150.306 91.304C150.211 91.04 150.075 90.8127 149.899 90.622C149.723 90.424 149.518 90.27 149.283 90.16C149.056 90.05 148.81 89.995 148.546 89.995C148.282 89.995 148.033 90.0537 147.798 90.171C147.571 90.281 147.369 90.435 147.193 90.633C147.024 90.8237 146.889 91.051 146.786 91.315C146.691 91.5717 146.643 91.8503 146.643 92.151ZM155.56 92.899L157.507 89.258H158.464V95H157.518V90.952L155.835 94.065H155.285L153.591 90.952V95H152.645V89.258H153.613L155.56 92.899ZM160.222 92.36V87.113H161.19V92.36H160.222ZM160.222 95V93.636H161.19V95H160.222Z" fill="#FFC700"/>
</svg>
