<svg width="37" height="41" viewBox="0 0 37 41" fill="none" xmlns="http://www.w3.org/2000/svg">
<path d="M13.875 34.1667H16.1875V25.0556C17.151 25.0556 17.9704 24.7238 18.6457 24.0602C19.3209 23.3966 19.6578 22.5895 19.6562 21.6389V14.8056H17.3438V21.6389H16.1875V14.8056H13.875V21.6389H12.7188V14.8056H10.4062V21.6389C10.4062 22.588 10.7439 23.3951 11.4191 24.0602C12.0944 24.7253 12.913 25.0571 13.875 25.0556V34.1667ZM23.125 34.1667H25.4375V14.8056C24.1656 14.8056 23.0772 15.252 22.1723 16.1449C21.2673 17.0378 20.814 18.1099 20.8125 19.3611V26.1944H23.125V34.1667ZM0 41V13.6667L18.5 0L37 13.6667V41H0ZM2.5 38.5H34.5V26.1944V15.9444L18.6457 3L2.5 15.9444V38.5Z" fill="#777777"/>
</svg>
