<svg width="37" height="42" viewBox="0 0 37 42" fill="none" xmlns="http://www.w3.org/2000/svg">
<path d="M13.875 35H16.1875V25.6667C17.151 25.6667 17.9704 25.3268 18.6457 24.647C19.3209 23.9672 19.6578 23.1404 19.6562 22.1667V15.1667H17.3438V22.1667H16.1875V15.1667H13.875V22.1667H12.7188V15.1667H10.4062V22.1667C10.4062 23.1389 10.7439 23.9657 11.4191 24.647C12.0944 25.3283 12.913 25.6682 13.875 25.6667V35ZM23.125 35H25.4375V15.1667C24.1656 15.1667 23.0772 15.624 22.1723 16.5387C21.2673 17.4533 20.814 18.5516 20.8125 19.8333V26.8333H23.125V35ZM0 42V14L18.5 0L37 14V42H0Z" fill="#048F22"/>
</svg>
