<svg width="41" height="41" viewBox="0 0 41 41" fill="none" xmlns="http://www.w3.org/2000/svg">
<path fill-rule="evenodd" clip-rule="evenodd" d="M20.5 23.575C22.6748 23.575 24.7605 22.7111 26.2983 21.1733C27.8361 19.6355 28.7 17.5498 28.7 15.375C28.7 13.2002 27.8361 11.1145 26.2983 9.57674C24.7605 8.03894 22.6748 7.17502 20.5 7.17502C18.3253 7.17502 16.2396 8.03894 14.7018 9.57674C13.164 11.1145 12.3 13.2002 12.3 15.375C12.3 17.5498 13.164 19.6355 14.7018 21.1733C16.2396 22.7111 18.3253 23.575 20.5 23.575ZM20.5 21.525C21.3077 21.525 22.1074 21.3659 22.8536 21.0569C23.5997 20.7478 24.2777 20.2948 24.8488 19.7237C25.4198 19.1526 25.8728 18.4747 26.1819 17.7285C26.491 16.9824 26.65 16.1826 26.65 15.375C26.65 14.5674 26.491 13.7677 26.1819 13.0215C25.8728 12.2754 25.4198 11.5974 24.8488 11.0263C24.2777 10.4552 23.5997 10.0022 22.8536 9.69316C22.1074 9.38409 21.3077 9.22502 20.5 9.22502C18.869 9.22502 17.3047 9.87296 16.1513 11.0263C14.998 12.1797 14.35 13.7439 14.35 15.375C14.35 17.0061 14.998 18.5704 16.1513 19.7237C17.3047 20.8771 18.869 21.525 20.5 21.525Z" fill="#777777"/>
<path fill-rule="evenodd" clip-rule="evenodd" d="M41 20.5C41 31.8221 31.8221 41 20.5 41C9.17785 41 0 31.8221 0 20.5C0 9.17785 9.17785 0 20.5 0C31.8221 0 41 9.17785 41 20.5ZM30.3708 36.0902C27.4197 37.9635 23.9954 38.9556 20.5 38.95C16.9212 38.9555 13.4187 37.9152 10.4232 35.957C10.1772 35.6495 9.92712 35.3317 9.67497 35.0037C9.382 34.6195 9.22385 34.1493 9.225 33.6661C9.225 32.5622 10.0183 31.6366 11.0792 31.4818C18.0954 30.4569 22.9262 30.545 29.9515 31.5177C30.4603 31.5915 30.9252 31.8468 31.2604 32.2366C31.5955 32.6264 31.7783 33.1244 31.775 33.6385C31.775 34.1305 31.6059 34.6081 31.3004 34.9812C30.9857 35.3645 30.6752 35.7346 30.3708 36.0902ZM33.8096 33.2776C33.6456 31.3588 32.1891 29.7578 30.2324 29.4872C23.041 28.4919 18.0144 28.3966 10.783 29.4534C8.815 29.7404 7.36462 31.3558 7.19243 33.2797C3.88713 29.847 2.04349 25.2653 2.05 20.5C2.05 10.3105 10.3105 2.05 20.5 2.05C30.6895 2.05 38.95 10.3105 38.95 20.5C38.9565 25.2643 37.1137 29.8452 33.8096 33.2776Z" fill="#777777"/>
</svg>
