<svg width="41" height="41" viewBox="0 0 41 41" fill="none" xmlns="http://www.w3.org/2000/svg">
<path d="M10.9796 34.7164L11.4215 35.1583L10.9796 34.7164C10.4577 35.2383 10.1645 35.9461 10.1645 36.6842C10.1645 37.4223 10.4577 38.1301 10.9796 38.652C11.5015 39.1739 12.2093 39.4671 12.9474 39.4671C13.6854 39.4671 14.3933 39.1739 14.9152 38.652C15.4371 38.1301 15.7303 37.4223 15.7303 36.6842C15.7303 35.9461 15.4371 35.2383 14.9152 34.7164L14.4732 35.1583L14.9152 34.7164C14.3933 34.1945 13.6854 33.9013 12.9474 33.9013C12.2093 33.9013 11.5015 34.1945 10.9796 34.7164ZM7.05632 5.84868H6.11159L6.48111 6.71815L11.9837 19.6655L12.1455 20.0461H12.5589H30.2105C31.1294 20.0461 31.9366 19.5999 32.4368 18.9329L38.907 10.306C38.9076 10.3052 38.9082 10.3043 38.9089 10.3035C39.274 9.82489 39.4671 9.23838 39.4671 8.63158C39.4671 7.89351 39.1739 7.18567 38.652 6.66377C38.1301 6.14188 37.4223 5.84868 36.6842 5.84868H7.05632ZM12.6668 20.9539H12.2783L12.1064 21.3023L10.4448 24.6686L10.4122 24.7348L10.3958 24.8068L10.18 25.7562L10.1645 25.8246V25.8947C10.1645 26.6328 10.4577 27.3406 10.9796 27.8625C11.5015 28.3844 12.2093 28.6776 12.9474 28.6776H36.0592V29.5855H12.9474C11.9685 29.5855 11.0297 29.1967 10.3376 28.5045C9.64543 27.8124 9.25658 26.8736 9.25658 25.8947V25.8942C9.25603 25.268 9.41479 24.652 9.71793 24.1042L9.72548 24.0905L9.73234 24.0765L11.286 20.9044L11.4115 20.6482L11.3001 20.3855L3.46698 1.91389L3.30541 1.53289H2.89158H0.625V0.625H3.90231L5.57479 4.56025L5.73652 4.94079H6.15H36.6842C37.6631 4.94079 38.6018 5.32964 39.294 6.0218C39.9862 6.71395 40.375 7.65272 40.375 8.63158C40.375 9.55763 40.0637 10.3251 39.5465 10.9532L39.5372 10.9645L39.5285 10.9761L33.249 19.3704L33.2438 19.3773L33.2389 19.3843C32.5735 20.3269 31.4653 20.9539 30.2105 20.9539H12.6668ZM32.3684 32.9934C33.3473 32.9934 34.286 33.3823 34.9782 34.0744C35.6704 34.7666 36.0592 35.7054 36.0592 36.6842C36.0592 37.6631 35.6704 38.6018 34.9782 39.294C34.286 39.9862 33.3473 40.375 32.3684 40.375C31.3896 40.375 30.4508 39.9862 29.7586 39.294C29.0665 38.6018 28.6776 37.6631 28.6776 36.6842C28.6776 35.7054 29.0665 34.7666 29.7586 34.0744C30.4508 33.3823 31.3896 32.9934 32.3684 32.9934ZM32.3684 33.9013C31.6304 33.9013 30.9225 34.1945 30.4006 34.7164C29.8787 35.2383 29.5855 35.9461 29.5855 36.6842C29.5855 37.4223 29.8787 38.1301 30.4006 38.652C30.9225 39.1739 31.6304 39.4671 32.3684 39.4671C33.1065 39.4671 33.8143 39.1739 34.3362 38.652C34.8581 38.1301 35.1513 37.4223 35.1513 36.6842C35.1513 35.9461 34.8581 35.2383 34.3362 34.7164C33.8143 34.1945 33.1065 33.9013 32.3684 33.9013ZM12.9474 32.9934C13.9262 32.9934 14.865 33.3823 15.5571 34.0744C16.2493 34.7666 16.6382 35.7054 16.6382 36.6842C16.6382 37.6631 16.2493 38.6018 15.5571 39.294C14.865 39.9862 13.9262 40.375 12.9474 40.375C11.9685 40.375 11.0297 39.9862 10.3376 39.294C9.64543 38.6018 9.25658 37.6631 9.25658 36.6842C9.25658 35.7054 9.64543 34.7666 10.3376 34.0744C11.0297 33.3823 11.9685 32.9934 12.9474 32.9934Z" fill="#777777" stroke="#777777" stroke-width="1.25"/>
</svg>
