<svg width="13" height="13" viewBox="0 0 13 13" fill="none" xmlns="http://www.w3.org/2000/svg">
<path fill-rule="evenodd" clip-rule="evenodd" d="M4.587 0.217155C5.80916 -0.114697 7.10352 -0.0652381 8.29679 0.358909C9.49005 0.783057 10.5253 1.56165 11.2638 2.59043V1.35912C11.2638 1.2046 11.3252 1.0564 11.4345 0.947137C11.5437 0.837871 11.6919 0.776486 11.8464 0.776486C12.0009 0.776486 12.1491 0.837871 12.2584 0.947137C12.3677 1.0564 12.429 1.2046 12.429 1.35912V4.66073H9.12754C8.97302 4.66073 8.82483 4.59935 8.71557 4.49008C8.60631 4.38082 8.54492 4.23262 8.54492 4.0781C8.54492 3.92357 8.60631 3.77538 8.71557 3.66611C8.82483 3.55684 8.97302 3.49546 9.12754 3.49546H10.4691C9.86061 2.54342 8.95038 1.82299 7.88405 1.44942C6.81772 1.07585 5.65691 1.07072 4.58733 1.43486C3.51774 1.799 2.60119 2.51137 1.9843 3.458C1.3674 4.40463 1.08582 5.53081 1.18459 6.65639C1.28336 7.78197 1.75678 8.8419 2.52911 9.66661C3.30144 10.4913 4.32805 11.0332 5.44471 11.2054C6.56137 11.3777 7.70354 11.1705 8.68851 10.6169C9.67348 10.0633 10.4443 9.19537 10.8777 8.15189C10.9059 8.07955 10.9482 8.01356 11.0022 7.95779C11.0561 7.90203 11.1207 7.85761 11.1921 7.82716C11.2635 7.7967 11.3403 7.78082 11.4179 7.78044C11.4955 7.78007 11.5724 7.79521 11.6441 7.82497C11.7158 7.85473 11.7808 7.89852 11.8354 7.95376C11.8899 8.009 11.9328 8.07458 11.9617 8.14664C11.9905 8.21871 12.0046 8.29581 12.0033 8.37342C12.0019 8.45103 11.985 8.52759 11.9536 8.59858C11.5488 9.57317 10.9024 10.4286 10.0754 11.0842C9.24847 11.7399 8.26819 12.1741 7.22698 12.346C6.18577 12.5179 5.11793 12.4219 4.12411 12.0669C3.1303 11.7119 2.24326 11.1096 1.5466 10.3169C0.849937 9.52424 0.366608 8.56717 0.142171 7.53598C-0.0822664 6.50478 -0.040418 5.4334 0.263771 4.42285C0.56796 3.4123 1.12447 2.49586 1.88084 1.75992C2.63721 1.02398 3.56853 0.493547 4.587 0.217155Z" fill="#57A93B"/>
</svg>
